<svg width="495" height="268" viewBox="0 0 495 268" fill="none" xmlns="http://www.w3.org/2000/svg">
<path d="M2.85769 12V1.09091H6.74618C7.5949 1.09091 8.29803 1.24538 8.85556 1.55433C9.41309 1.86328 9.83034 2.28587 10.1073 2.82209C10.3843 3.35476 10.5228 3.9549 10.5228 4.62251C10.5228 5.29368 10.3825 5.89737 10.102 6.43359C9.82502 6.96626 9.40598 7.38885 8.8449 7.70135C8.28738 8.0103 7.58603 8.16477 6.74086 8.16477H4.06685V6.76918H6.59171C7.12793 6.76918 7.56294 6.67685 7.89675 6.49219C8.23056 6.30398 8.47559 6.0483 8.63184 5.72514C8.78809 5.40199 8.86621 5.03445 8.86621 4.62251C8.86621 4.21058 8.78809 3.84482 8.63184 3.52521C8.47559 3.20561 8.22878 2.95526 7.89142 2.77415C7.55762 2.59304 7.11728 2.50249 6.5704 2.50249H4.50364V12H2.85769ZM15.6684 12.1651C14.9014 12.1651 14.232 11.9893 13.6602 11.6378C13.0885 11.2862 12.6446 10.7944 12.3286 10.1623C12.0125 9.53018 11.8545 8.79155 11.8545 7.94638C11.8545 7.09766 12.0125 6.35547 12.3286 5.71982C12.6446 5.08416 13.0885 4.59055 13.6602 4.23899C14.232 3.88743 14.9014 3.71165 15.6684 3.71165C16.4355 3.71165 17.1048 3.88743 17.6766 4.23899C18.2483 4.59055 18.6922 5.08416 19.0083 5.71982C19.3243 6.35547 19.4823 7.09766 19.4823 7.94638C19.4823 8.79155 19.3243 9.53018 19.0083 10.1623C18.6922 10.7944 18.2483 11.2862 17.6766 11.6378C17.1048 11.9893 16.4355 12.1651 15.6684 12.1651ZM15.6737 10.8281C16.1709 10.8281 16.5828 10.6967 16.9095 10.4339C17.2362 10.1712 17.4777 9.82138 17.634 9.38459C17.7938 8.9478 17.8737 8.46662 17.8737 7.94105C17.8737 7.41903 17.7938 6.93963 17.634 6.50284C17.4777 6.0625 17.2362 5.70916 16.9095 5.44283C16.5828 5.17649 16.1709 5.04332 15.6737 5.04332C15.173 5.04332 14.7575 5.17649 14.4273 5.44283C14.1006 5.70916 13.8573 6.0625 13.6975 6.50284C13.5413 6.93963 13.4632 7.41903 13.4632 7.94105C13.4632 8.46662 13.5413 8.9478 13.6975 9.38459C13.8573 9.82138 14.1006 10.1712 14.4273 10.4339C14.7575 10.6967 15.173 10.8281 15.6737 10.8281ZM22.8528 1.09091V12H21.2601V1.09091H22.8528ZM26.5882 1.09091V12H24.9955V1.09091H26.5882ZM32.1772 12.1651C31.4102 12.1651 30.7408 11.9893 30.169 11.6378C29.5973 11.2862 29.1534 10.7944 28.8374 10.1623C28.5213 9.53018 28.3633 8.79155 28.3633 7.94638C28.3633 7.09766 28.5213 6.35547 28.8374 5.71982C29.1534 5.08416 29.5973 4.59055 30.169 4.23899C30.7408 3.88743 31.4102 3.71165 32.1772 3.71165C32.9442 3.71165 33.6136 3.88743 34.1854 4.23899C34.7571 4.59055 35.201 5.08416 35.517 5.71982C35.8331 6.35547 35.9911 7.09766 35.9911 7.94638C35.9911 8.79155 35.8331 9.53018 35.517 10.1623C35.201 10.7944 34.7571 11.2862 34.1854 11.6378C33.6136 11.9893 32.9442 12.1651 32.1772 12.1651ZM32.1825 10.8281C32.6797 10.8281 33.0916 10.6967 33.4183 10.4339C33.745 10.1712 33.9865 9.82138 34.1428 9.38459C34.3026 8.9478 34.3825 8.46662 34.3825 7.94105C34.3825 7.41903 34.3026 6.93963 34.1428 6.50284C33.9865 6.0625 33.745 5.70916 33.4183 5.44283C33.0916 5.17649 32.6797 5.04332 32.1825 5.04332C31.6818 5.04332 31.2663 5.17649 30.9361 5.44283C30.6094 5.70916 30.3661 6.0625 30.2063 6.50284C30.0501 6.93963 29.9719 7.41903 29.9719 7.94105C29.9719 8.46662 30.0501 8.9478 30.2063 9.38459C30.3661 9.82138 30.6094 10.1712 30.9361 10.4339C31.2663 10.6967 31.6818 10.8281 32.1825 10.8281ZM44.1197 12.1811C43.6012 12.1811 43.1325 12.0852 42.7134 11.8935C42.2944 11.6982 41.9624 11.4158 41.7173 11.0465C41.4759 10.6772 41.3551 10.2244 41.3551 9.68821C41.3551 9.22656 41.4439 8.84659 41.6214 8.5483C41.799 8.25 42.0387 8.01385 42.3406 7.83984C42.6424 7.66584 42.9798 7.53445 43.3526 7.44567C43.7255 7.35689 44.1055 7.28942 44.4925 7.24325C44.9826 7.18643 45.3803 7.14027 45.6857 7.10476C45.9911 7.0657 46.2131 7.00355 46.3516 6.91832C46.4901 6.8331 46.5593 6.6946 46.5593 6.50284V6.46555C46.5593 6.00035 46.4279 5.63991 46.1651 5.38423C45.9059 5.12855 45.5188 5.00071 45.0039 5.00071C44.4677 5.00071 44.0451 5.11967 43.7362 5.3576C43.4308 5.59197 43.2195 5.85298 43.1023 6.14062L41.6055 5.79972C41.783 5.30256 42.0423 4.90128 42.3832 4.59588C42.7276 4.28693 43.1236 4.06321 43.571 3.92472C44.0185 3.78267 44.489 3.71165 44.9826 3.71165C45.3093 3.71165 45.6555 3.75071 46.0213 3.82884C46.3906 3.90341 46.7351 4.0419 47.0547 4.24432C47.3778 4.44673 47.6424 4.73615 47.8484 5.11257C48.0543 5.48544 48.1573 5.97017 48.1573 6.56676V12H46.6019V10.8814H46.538C46.435 11.0874 46.2805 11.2898 46.0746 11.4886C45.8686 11.6875 45.604 11.8526 45.2809 11.984C44.9577 12.1154 44.5707 12.1811 44.1197 12.1811ZM44.4659 10.9027C44.9063 10.9027 45.2827 10.8157 45.5952 10.6417C45.9112 10.4677 46.1509 10.2404 46.3143 9.95987C46.4812 9.67578 46.5646 9.37216 46.5646 9.04901V7.99432C46.5078 8.05114 46.3977 8.1044 46.2344 8.15412C46.0746 8.20028 45.8917 8.24112 45.6857 8.27663C45.4798 8.30859 45.2791 8.33878 45.0838 8.36719C44.8885 8.39205 44.7251 8.41335 44.5938 8.43111C44.2848 8.47017 44.0025 8.53587 43.7468 8.6282C43.4947 8.72053 43.2923 8.85369 43.1396 9.0277C42.9904 9.19815 42.9158 9.42543 42.9158 9.70952C42.9158 10.1037 43.0614 10.402 43.3526 10.6044C43.6438 10.8033 44.0149 10.9027 44.4659 10.9027ZM55.8411 1.09091V12H54.2484V1.09091H55.8411ZM60.3648 12.1811C59.8463 12.1811 59.3776 12.0852 58.9585 11.8935C58.5395 11.6982 58.2075 11.4158 57.9624 11.0465C57.721 10.6772 57.6002 10.2244 57.6002 9.68821C57.6002 9.22656 57.689 8.84659 57.8666 8.5483C58.0441 8.25 58.2838 8.01385 58.5857 7.83984C58.8875 7.66584 59.2249 7.53445 59.5977 7.44567C59.9706 7.35689 60.3506 7.28942 60.7377 7.24325C61.2277 7.18643 61.6254 7.14027 61.9308 7.10476C62.2362 7.0657 62.4582 7.00355 62.5967 6.91832C62.7352 6.8331 62.8044 6.6946 62.8044 6.50284V6.46555C62.8044 6.00035 62.673 5.63991 62.4102 5.38423C62.151 5.12855 61.7639 5.00071 61.249 5.00071C60.7128 5.00071 60.2902 5.11967 59.9813 5.3576C59.6759 5.59197 59.4646 5.85298 59.3474 6.14062L57.8506 5.79972C58.0281 5.30256 58.2874 4.90128 58.6283 4.59588C58.9727 4.28693 59.3687 4.06321 59.8161 3.92472C60.2636 3.78267 60.7341 3.71165 61.2277 3.71165C61.5544 3.71165 61.9007 3.75071 62.2664 3.82884C62.6357 3.90341 62.9802 4.0419 63.2998 4.24432C63.623 4.44673 63.8875 4.73615 64.0935 5.11257C64.2994 5.48544 64.4024 5.97017 64.4024 6.56676V12H62.847V10.8814H62.7831C62.6801 11.0874 62.5257 11.2898 62.3197 11.4886C62.1137 11.6875 61.8492 11.8526 61.526 11.984C61.2029 12.1154 60.8158 12.1811 60.3648 12.1811ZM60.711 10.9027C61.1514 10.9027 61.5278 10.8157 61.8403 10.6417C62.1563 10.4677 62.396 10.2404 62.5594 9.95987C62.7263 9.67578 62.8097 9.37216 62.8097 9.04901V7.99432C62.7529 8.05114 62.6428 8.1044 62.4795 8.15412C62.3197 8.20028 62.1368 8.24112 61.9308 8.27663C61.7249 8.30859 61.5242 8.33878 61.3289 8.36719C61.1336 8.39205 60.9703 8.41335 60.8389 8.43111C60.5299 8.47017 60.2476 8.53587 59.9919 8.6282C59.7398 8.72053 59.5374 8.85369 59.3847 9.0277C59.2355 9.19815 59.161 9.42543 59.161 9.70952C59.161 10.1037 59.3066 10.402 59.5977 10.6044C59.8889 10.8033 60.26 10.9027 60.711 10.9027ZM70.6214 12V1.09091H72.214V5.14453H72.3099C72.4023 4.97408 72.5354 4.77699 72.7094 4.55327C72.8834 4.32955 73.1249 4.13423 73.4339 3.96733C73.7428 3.79688 74.1512 3.71165 74.659 3.71165C75.3195 3.71165 75.909 3.87855 76.4275 4.21236C76.9459 4.54616 77.3525 5.02734 77.6473 5.65589C77.9456 6.28445 78.0947 7.04084 78.0947 7.92507C78.0947 8.8093 77.9474 9.56747 77.6526 10.1996C77.3579 10.8281 76.953 11.3129 76.4381 11.6538C75.9232 11.9911 75.3355 12.1598 74.675 12.1598C74.1778 12.1598 73.7712 12.0763 73.4552 11.9094C73.1427 11.7425 72.8976 11.5472 72.7201 11.3235C72.5425 11.0998 72.4058 10.9009 72.3099 10.7269H72.1768V12H70.6214ZM72.1821 7.90909C72.1821 8.48437 72.2655 8.98864 72.4324 9.42188C72.5993 9.85511 72.8408 10.1942 73.1569 10.4393C73.4729 10.6808 73.86 10.8015 74.3181 10.8015C74.7939 10.8015 75.1917 10.6754 75.5113 10.4233C75.8309 10.1676 76.0724 9.82138 76.2357 9.38459C76.4026 8.9478 76.4861 8.45597 76.4861 7.90909C76.4861 7.36932 76.4044 6.88459 76.241 6.4549C76.0812 6.02521 75.8398 5.68608 75.5166 5.4375C75.197 5.18892 74.7975 5.06463 74.3181 5.06463C73.8564 5.06463 73.4658 5.18359 73.1462 5.42152C72.8302 5.65945 72.5905 5.99148 72.4271 6.41761C72.2638 6.84375 72.1821 7.34091 72.1821 7.90909ZM79.8832 12V3.81818H81.4226V5.1179H81.5078C81.657 4.67756 81.9197 4.33132 82.2962 4.07919C82.6761 3.82351 83.1058 3.69567 83.5852 3.69567C83.6847 3.69567 83.8018 3.69922 83.9368 3.70632C84.0753 3.71342 84.1836 3.7223 84.2617 3.73295V5.25639C84.1978 5.23864 84.0842 5.21911 83.9208 5.1978C83.7575 5.17294 83.5941 5.16051 83.4308 5.16051C83.0543 5.16051 82.7188 5.24041 82.424 5.40021C82.1328 5.55646 81.902 5.77486 81.7315 6.0554C81.5611 6.33239 81.4759 6.64844 81.4759 7.00355V12H79.8832ZM87.9478 12.1811C87.4293 12.1811 86.9606 12.0852 86.5415 11.8935C86.1225 11.6982 85.7905 11.4158 85.5455 11.0465C85.304 10.6772 85.1832 10.2244 85.1832 9.68821C85.1832 9.22656 85.272 8.84659 85.4496 8.5483C85.6271 8.25 85.8668 8.01385 86.1687 7.83984C86.4705 7.66584 86.8079 7.53445 87.1808 7.44567C87.5536 7.35689 87.9336 7.28942 88.3207 7.24325C88.8107 7.18643 89.2085 7.14027 89.5138 7.10476C89.8192 7.0657 90.0412 7.00355 90.1797 6.91832C90.3182 6.8331 90.3874 6.6946 90.3874 6.50284V6.46555C90.3874 6.00035 90.256 5.63991 89.9933 5.38423C89.734 5.12855 89.3469 5.00071 88.832 5.00071C88.2958 5.00071 87.8732 5.11967 87.5643 5.3576C87.2589 5.59197 87.0476 5.85298 86.9304 6.14062L85.4336 5.79972C85.6112 5.30256 85.8704 4.90128 86.2113 4.59588C86.5558 4.28693 86.9517 4.06321 87.3991 3.92472C87.8466 3.78267 88.3171 3.71165 88.8107 3.71165C89.1374 3.71165 89.4837 3.75071 89.8494 3.82884C90.2188 3.90341 90.5632 4.0419 90.8828 4.24432C91.206 4.44673 91.4705 4.73615 91.6765 5.11257C91.8825 5.48544 91.9854 5.97017 91.9854 6.56676V12H90.43V10.8814H90.3661C90.2631 11.0874 90.1087 11.2898 89.9027 11.4886C89.6967 11.6875 89.4322 11.8526 89.109 11.984C88.7859 12.1154 88.3988 12.1811 87.9478 12.1811ZM88.294 10.9027C88.7344 10.9027 89.1108 10.8157 89.4233 10.6417C89.7393 10.4677 89.979 10.2404 90.1424 9.95987C90.3093 9.67578 90.3928 9.37216 90.3928 9.04901V7.99432C90.3359 8.05114 90.2259 8.1044 90.0625 8.15412C89.9027 8.20028 89.7198 8.24112 89.5138 8.27663C89.3079 8.30859 89.1072 8.33878 88.9119 8.36719C88.7166 8.39205 88.5533 8.41335 88.4219 8.43111C88.1129 8.47017 87.8306 8.53587 87.5749 8.6282C87.3228 8.72053 87.1204 8.85369 86.9677 9.0277C86.8185 9.19815 86.744 9.42543 86.744 9.70952C86.744 10.1037 86.8896 10.402 87.1808 10.6044C87.4719 10.8033 87.843 10.9027 88.294 10.9027ZM100.238 5.8157L98.7943 6.07138C98.7339 5.88672 98.6381 5.71094 98.5067 5.54403C98.3788 5.37713 98.2048 5.24041 97.9846 5.13388C97.7645 5.02734 97.4893 4.97408 97.159 4.97408C96.708 4.97408 96.3316 5.07528 96.0297 5.2777C95.7279 5.47656 95.577 5.73402 95.577 6.05007C95.577 6.32351 95.6782 6.54368 95.8806 6.71058C96.083 6.87749 96.4097 7.0142 96.8607 7.12074L98.1604 7.41903C98.9133 7.59304 99.4743 7.86115 99.8437 8.22337C100.213 8.58558 100.398 9.05611 100.398 9.63494C100.398 10.125 100.256 10.5618 99.9715 10.9453C99.691 11.3253 99.2986 11.6236 98.7943 11.8402C98.2936 12.0568 97.713 12.1651 97.0525 12.1651C96.1363 12.1651 95.3888 11.9698 94.8099 11.5792C94.2311 11.185 93.876 10.6257 93.7446 9.90128L95.284 9.6669C95.3799 10.0682 95.577 10.3718 95.8753 10.5778C96.1736 10.7802 96.5624 10.8814 97.0418 10.8814C97.5638 10.8814 97.9811 10.7731 98.2936 10.5565C98.6061 10.3363 98.7623 10.0682 98.7623 9.75213C98.7623 9.49645 98.6665 9.28161 98.4747 9.1076C98.2865 8.93359 97.9971 8.8022 97.6064 8.71342L96.2215 8.4098C95.458 8.2358 94.8934 7.95881 94.5276 7.57884C94.1654 7.19886 93.9843 6.71768 93.9843 6.1353C93.9843 5.65234 94.1192 5.22976 94.3891 4.86754C94.659 4.50533 95.0319 4.22301 95.5077 4.0206C95.9836 3.81463 96.5287 3.71165 97.143 3.71165C98.0273 3.71165 98.7233 3.90341 99.2311 4.28693C99.7389 4.6669 100.074 5.17649 100.238 5.8157ZM104.53 12.1811C104.011 12.1811 103.543 12.0852 103.124 11.8935C102.705 11.6982 102.373 11.4158 102.127 11.0465C101.886 10.6772 101.765 10.2244 101.765 9.68821C101.765 9.22656 101.854 8.84659 102.032 8.5483C102.209 8.25 102.449 8.01385 102.751 7.83984C103.053 7.66584 103.39 7.53445 103.763 7.44567C104.136 7.35689 104.516 7.28942 104.903 7.24325C105.393 7.18643 105.79 7.14027 106.096 7.10476C106.401 7.0657 106.623 7.00355 106.762 6.91832C106.9 6.8331 106.969 6.6946 106.969 6.50284V6.46555C106.969 6.00035 106.838 5.63991 106.575 5.38423C106.316 5.12855 105.929 5.00071 105.414 5.00071C104.878 5.00071 104.455 5.11967 104.146 5.3576C103.841 5.59197 103.63 5.85298 103.512 6.14062L102.016 5.79972C102.193 5.30256 102.452 4.90128 102.793 4.59588C103.138 4.28693 103.534 4.06321 103.981 3.92472C104.429 3.78267 104.899 3.71165 105.393 3.71165C105.719 3.71165 106.066 3.75071 106.431 3.82884C106.801 3.90341 107.145 4.0419 107.465 4.24432C107.788 4.44673 108.053 4.73615 108.259 5.11257C108.464 5.48544 108.567 5.97017 108.567 6.56676V12H107.012V10.8814H106.948C106.845 11.0874 106.691 11.2898 106.485 11.4886C106.279 11.6875 106.014 11.8526 105.691 11.984C105.368 12.1154 104.981 12.1811 104.53 12.1811ZM104.876 10.9027C105.316 10.9027 105.693 10.8157 106.005 10.6417C106.321 10.4677 106.561 10.2404 106.724 9.95987C106.891 9.67578 106.975 9.37216 106.975 9.04901V7.99432C106.918 8.05114 106.808 8.1044 106.645 8.15412C106.485 8.20028 106.302 8.24112 106.096 8.27663C105.89 8.30859 105.689 8.33878 105.494 8.36719C105.299 8.39205 105.135 8.41335 105.004 8.43111C104.695 8.47017 104.413 8.53587 104.157 8.6282C103.905 8.72053 103.702 8.85369 103.55 9.0277C103.401 9.19815 103.326 9.42543 103.326 9.70952C103.326 10.1037 103.472 10.402 103.763 10.6044C104.054 10.8033 104.425 10.9027 104.876 10.9027ZM118.776 1.09091V12H117.125V2.74219H117.061L114.451 4.44673V2.87003L117.173 1.09091H118.776ZM125.903 0.579545L122.388 13.6406H120.965L124.481 0.579545H125.903ZM127.006 9.86932V8.53764L131.72 1.09091H132.769V3.05114H132.104L128.732 8.38849V8.47372H135.193V9.86932H127.006ZM132.178 12V9.46449L132.189 8.85724V1.09091H133.749V12H132.178Z" fill="#615E83"/>
<path d="M461.175 12.1491C460.444 12.1491 459.79 12.0231 459.215 11.771C458.643 11.5188 458.191 11.169 457.857 10.7216C457.527 10.2706 457.349 9.74858 457.324 9.15554H458.997C459.018 9.47869 459.126 9.75923 459.322 9.99716C459.521 10.2315 459.78 10.4126 460.099 10.5405C460.419 10.6683 460.774 10.7322 461.165 10.7322C461.594 10.7322 461.974 10.6577 462.305 10.5085C462.638 10.3594 462.9 10.1516 463.088 9.8853C463.276 9.61541 463.37 9.30469 463.37 8.95312C463.37 8.58736 463.276 8.26598 463.088 7.98899C462.903 7.70845 462.631 7.48828 462.273 7.32848C461.918 7.16868 461.488 7.08878 460.984 7.08878H460.062V5.74645H460.984C461.388 5.74645 461.744 5.67365 462.049 5.52805C462.358 5.38246 462.599 5.18004 462.773 4.92081C462.947 4.65803 463.034 4.35085 463.034 3.99929C463.034 3.66193 462.958 3.36896 462.805 3.12038C462.656 2.86825 462.443 2.67116 462.166 2.52912C461.893 2.38707 461.57 2.31605 461.197 2.31605C460.842 2.31605 460.51 2.38175 460.201 2.51314C459.895 2.64098 459.647 2.82564 459.455 3.06712C459.263 3.30504 459.16 3.59091 459.146 3.92472H457.553C457.571 3.33523 457.745 2.81676 458.075 2.36932C458.409 1.92187 458.849 1.57209 459.396 1.31996C459.943 1.06783 460.55 0.941761 461.218 0.941761C461.918 0.941761 462.521 1.07848 463.029 1.35192C463.54 1.6218 463.935 1.98224 464.212 2.43324C464.492 2.88423 464.631 3.37784 464.627 3.91406C464.631 4.52486 464.46 5.04332 464.116 5.46946C463.775 5.8956 463.32 6.18146 462.752 6.32706V6.41229C463.477 6.52237 464.038 6.81001 464.435 7.27521C464.837 7.74041 465.036 8.31747 465.032 9.00639C465.036 9.60653 464.869 10.1445 464.531 10.6204C464.197 11.0962 463.741 11.4709 463.162 11.7443C462.583 12.0142 461.921 12.1491 461.175 12.1491ZM470.843 12.1491C470.112 12.1491 469.458 12.0231 468.883 11.771C468.311 11.5188 467.859 11.169 467.525 10.7216C467.195 10.2706 467.017 9.74858 466.992 9.15554H468.665C468.686 9.47869 468.794 9.75923 468.99 9.99716C469.189 10.2315 469.448 10.4126 469.767 10.5405C470.087 10.6683 470.442 10.7322 470.833 10.7322C471.262 10.7322 471.642 10.6577 471.973 10.5085C472.306 10.3594 472.567 10.1516 472.756 9.8853C472.944 9.61541 473.038 9.30469 473.038 8.95312C473.038 8.58736 472.944 8.26598 472.756 7.98899C472.571 7.70845 472.299 7.48828 471.941 7.32848C471.586 7.16868 471.156 7.08878 470.652 7.08878H469.73V5.74645H470.652C471.056 5.74645 471.412 5.67365 471.717 5.52805C472.026 5.38246 472.267 5.18004 472.441 4.92081C472.615 4.65803 472.702 4.35085 472.702 3.99929C472.702 3.66193 472.626 3.36896 472.473 3.12038C472.324 2.86825 472.111 2.67116 471.834 2.52912C471.561 2.38707 471.238 2.31605 470.865 2.31605C470.51 2.31605 470.178 2.38175 469.869 2.51314C469.563 2.64098 469.315 2.82564 469.123 3.06712C468.931 3.30504 468.828 3.59091 468.814 3.92472H467.221C467.239 3.33523 467.413 2.81676 467.743 2.36932C468.077 1.92187 468.517 1.57209 469.064 1.31996C469.611 1.06783 470.218 0.941761 470.886 0.941761C471.586 0.941761 472.189 1.07848 472.697 1.35192C473.208 1.6218 473.603 1.98224 473.88 2.43324C474.16 2.88423 474.299 3.37784 474.295 3.91406C474.299 4.52486 474.128 5.04332 473.784 5.46946C473.443 5.8956 472.988 6.18146 472.42 6.32706V6.41229C473.145 6.52237 473.706 6.81001 474.103 7.27521C474.505 7.74041 474.703 8.31747 474.7 9.00639C474.703 9.60653 474.537 10.1445 474.199 10.6204C473.865 11.0962 473.409 11.4709 472.83 11.7443C472.251 12.0142 471.589 12.1491 470.843 12.1491ZM480.511 12.1491C479.78 12.1491 479.126 12.0231 478.551 11.771C477.979 11.5188 477.527 11.169 477.193 10.7216C476.863 10.2706 476.685 9.74858 476.66 9.15554H478.333C478.354 9.47869 478.462 9.75923 478.658 9.99716C478.857 10.2315 479.116 10.4126 479.435 10.5405C479.755 10.6683 480.11 10.7322 480.501 10.7322C480.93 10.7322 481.31 10.6577 481.641 10.5085C481.974 10.3594 482.235 10.1516 482.424 9.8853C482.612 9.61541 482.706 9.30469 482.706 8.95312C482.706 8.58736 482.612 8.26598 482.424 7.98899C482.239 7.70845 481.967 7.48828 481.609 7.32848C481.254 7.16868 480.824 7.08878 480.32 7.08878H479.398V5.74645H480.32C480.724 5.74645 481.08 5.67365 481.385 5.52805C481.694 5.38246 481.935 5.18004 482.109 4.92081C482.283 4.65803 482.37 4.35085 482.37 3.99929C482.37 3.66193 482.294 3.36896 482.141 3.12038C481.992 2.86825 481.779 2.67116 481.502 2.52912C481.229 2.38707 480.906 2.31605 480.533 2.31605C480.178 2.31605 479.846 2.38175 479.537 2.51314C479.231 2.64098 478.983 2.82564 478.791 3.06712C478.599 3.30504 478.496 3.59091 478.482 3.92472H476.889C476.907 3.33523 477.081 2.81676 477.411 2.36932C477.745 1.92187 478.185 1.57209 478.732 1.31996C479.279 1.06783 479.886 0.941761 480.554 0.941761C481.254 0.941761 481.857 1.07848 482.365 1.35192C482.876 1.6218 483.271 1.98224 483.548 2.43324C483.828 2.88423 483.967 3.37784 483.963 3.91406C483.967 4.52486 483.796 5.04332 483.452 5.46946C483.111 5.8956 482.656 6.18146 482.088 6.32706V6.41229C482.813 6.52237 483.374 6.81001 483.771 7.27521C484.173 7.74041 484.371 8.31747 484.368 9.00639C484.371 9.60653 484.205 10.1445 483.867 10.6204C483.533 11.0962 483.077 11.4709 482.498 11.7443C481.919 12.0142 481.257 12.1491 480.511 12.1491ZM490.179 12.1491C489.448 12.1491 488.794 12.0231 488.219 11.771C487.647 11.5188 487.195 11.169 486.861 10.7216C486.531 10.2706 486.353 9.74858 486.328 9.15554H488.001C488.022 9.47869 488.13 9.75923 488.326 9.99716C488.525 10.2315 488.784 10.4126 489.103 10.5405C489.423 10.6683 489.778 10.7322 490.169 10.7322C490.598 10.7322 490.978 10.6577 491.309 10.5085C491.642 10.3594 491.903 10.1516 492.092 9.8853C492.28 9.61541 492.374 9.30469 492.374 8.95312C492.374 8.58736 492.28 8.26598 492.092 7.98899C491.907 7.70845 491.635 7.48828 491.277 7.32848C490.922 7.16868 490.492 7.08878 489.988 7.08878H489.066V5.74645H489.988C490.392 5.74645 490.748 5.67365 491.053 5.52805C491.362 5.38246 491.603 5.18004 491.777 4.92081C491.951 4.65803 492.038 4.35085 492.038 3.99929C492.038 3.66193 491.962 3.36896 491.809 3.12038C491.66 2.86825 491.447 2.67116 491.17 2.52912C490.897 2.38707 490.574 2.31605 490.201 2.31605C489.846 2.31605 489.513 2.38175 489.205 2.51314C488.899 2.64098 488.651 2.82564 488.459 3.06712C488.267 3.30504 488.164 3.59091 488.15 3.92472H486.557C486.575 3.33523 486.749 2.81676 487.079 2.36932C487.413 1.92187 487.853 1.57209 488.4 1.31996C488.947 1.06783 489.554 0.941761 490.222 0.941761C490.922 0.941761 491.525 1.07848 492.033 1.35192C492.544 1.6218 492.939 1.98224 493.216 2.43324C493.496 2.88423 493.635 3.37784 493.631 3.91406C493.635 4.52486 493.464 5.04332 493.12 5.46946C492.779 5.8956 492.324 6.18146 491.756 6.32706V6.41229C492.48 6.52237 493.042 6.81001 493.439 7.27521C493.841 7.74041 494.039 8.31747 494.036 9.00639C494.039 9.60653 493.873 10.1445 493.535 10.6204C493.201 11.0962 492.745 11.4709 492.166 11.7443C491.587 12.0142 490.925 12.1491 490.179 12.1491Z" fill="#1E1E1E"/>
<rect x="2" y="24" width="468" height="16" rx="4" fill="#F8F8FF"/>
<rect x="1" y="24" width="422.55" height="16" rx="4" fill="url(#paint0_linear_0_1)"/>
<path d="M458.784 71V69.8068L462.475 65.9822C462.869 65.5668 463.194 65.2028 463.45 64.8903C463.709 64.5742 463.903 64.2741 464.031 63.9901C464.158 63.706 464.222 63.4041 464.222 63.0845C464.222 62.7223 464.137 62.4098 463.967 62.147C463.796 61.8807 463.564 61.6765 463.269 61.5344C462.974 61.3888 462.642 61.3161 462.273 61.3161C461.882 61.3161 461.541 61.396 461.25 61.5558C460.959 61.7156 460.735 61.9411 460.579 62.2322C460.423 62.5234 460.344 62.8643 460.344 63.255H458.773C458.773 62.5909 458.926 62.0103 459.231 61.5131C459.537 61.016 459.956 60.6307 460.488 60.3572C461.021 60.0803 461.626 59.9418 462.305 59.9418C462.99 59.9418 463.594 60.0785 464.116 60.3519C464.641 60.6218 465.051 60.9911 465.346 61.4599C465.641 61.9251 465.788 62.4506 465.788 63.0366C465.788 63.4414 465.712 63.8374 465.559 64.2244C465.41 64.6115 465.149 65.043 464.776 65.5188C464.403 65.9911 463.885 66.5646 463.221 67.2393L461.053 69.5085V69.5884H465.964V71H458.784ZM467.983 71V69.8068L471.674 65.9822C472.069 65.5668 472.393 65.2028 472.649 64.8903C472.908 64.5742 473.102 64.2741 473.23 63.9901C473.358 63.706 473.422 63.4041 473.422 63.0845C473.422 62.7223 473.336 62.4098 473.166 62.147C472.995 61.8807 472.763 61.6765 472.468 61.5344C472.173 61.3888 471.841 61.3161 471.472 61.3161C471.081 61.3161 470.74 61.396 470.449 61.5558C470.158 61.7156 469.934 61.9411 469.778 62.2322C469.622 62.5234 469.544 62.8643 469.544 63.255H467.972C467.972 62.5909 468.125 62.0103 468.43 61.5131C468.736 61.016 469.155 60.6307 469.688 60.3572C470.22 60.0803 470.826 59.9418 471.504 59.9418C472.189 59.9418 472.793 60.0785 473.315 60.3519C473.841 60.6218 474.251 60.9911 474.545 61.4599C474.84 61.9251 474.988 62.4506 474.988 63.0366C474.988 63.4414 474.911 63.8374 474.759 64.2244C474.609 64.6115 474.348 65.043 473.975 65.5188C473.603 65.9911 473.084 66.5646 472.42 67.2393L470.252 69.5085V69.5884H475.163V71H467.983ZM480.98 71.1491C480.249 71.1491 479.595 71.0231 479.02 70.771C478.448 70.5188 477.995 70.169 477.662 69.7216C477.331 69.2706 477.154 68.7486 477.129 68.1555H478.801C478.823 68.4787 478.931 68.7592 479.126 68.9972C479.325 69.2315 479.585 69.4126 479.904 69.5405C480.224 69.6683 480.579 69.7322 480.969 69.7322C481.399 69.7322 481.779 69.6577 482.109 69.5085C482.443 69.3594 482.704 69.1516 482.892 68.8853C483.081 68.6154 483.175 68.3047 483.175 67.9531C483.175 67.5874 483.081 67.266 482.892 66.989C482.708 66.7085 482.436 66.4883 482.077 66.3285C481.722 66.1687 481.293 66.0888 480.788 66.0888H479.867V64.7464H480.788C481.193 64.7464 481.548 64.6737 481.854 64.5281C482.163 64.3825 482.404 64.18 482.578 63.9208C482.752 63.658 482.839 63.3509 482.839 62.9993C482.839 62.6619 482.763 62.369 482.61 62.1204C482.461 61.8683 482.248 61.6712 481.971 61.5291C481.697 61.3871 481.374 61.3161 481.001 61.3161C480.646 61.3161 480.314 61.3817 480.005 61.5131C479.7 61.641 479.451 61.8256 479.26 62.0671C479.068 62.305 478.965 62.5909 478.951 62.9247H477.358C477.376 62.3352 477.55 61.8168 477.88 61.3693C478.214 60.9219 478.654 60.5721 479.201 60.32C479.748 60.0678 480.355 59.9418 481.023 59.9418C481.722 59.9418 482.326 60.0785 482.834 60.3519C483.345 60.6218 483.739 60.9822 484.016 61.4332C484.297 61.8842 484.435 62.3778 484.432 62.9141C484.435 63.5249 484.265 64.0433 483.92 64.4695C483.58 64.8956 483.125 65.1815 482.557 65.3271V65.4123C483.281 65.5224 483.842 65.81 484.24 66.2752C484.641 66.7404 484.84 67.3175 484.837 68.0064C484.84 68.6065 484.673 69.1445 484.336 69.6204C484.002 70.0962 483.546 70.4709 482.967 70.7443C482.388 71.0142 481.726 71.1491 480.98 71.1491ZM486.85 71V69.8068L490.542 65.9822C490.936 65.5668 491.261 65.2028 491.516 64.8903C491.776 64.5742 491.969 64.2741 492.097 63.9901C492.225 63.706 492.289 63.4041 492.289 63.0845C492.289 62.7223 492.203 62.4098 492.033 62.147C491.863 61.8807 491.63 61.6765 491.335 61.5344C491.04 61.3888 490.708 61.3161 490.339 61.3161C489.949 61.3161 489.608 61.396 489.316 61.5558C489.025 61.7156 488.801 61.9411 488.645 62.2322C488.489 62.5234 488.411 62.8643 488.411 63.255H486.839C486.839 62.5909 486.992 62.0103 487.298 61.5131C487.603 61.016 488.022 60.6307 488.555 60.3572C489.087 60.0803 489.693 59.9418 490.371 59.9418C491.056 59.9418 491.66 60.0785 492.182 60.3519C492.708 60.6218 493.118 60.9911 493.413 61.4599C493.707 61.9251 493.855 62.4506 493.855 63.0366C493.855 63.4414 493.778 63.8374 493.626 64.2244C493.477 64.6115 493.216 65.043 492.843 65.5188C492.47 65.9911 491.951 66.5646 491.287 67.2393L489.119 69.5085V69.5884H494.031V71H486.85Z" fill="#1E1E1E"/>
<path d="M2.60183 73V62.0909H6.49032C7.33904 62.0909 8.04217 62.2454 8.5997 62.5543C9.15723 62.8633 9.57449 63.2859 9.85147 63.8221C10.1285 64.3548 10.267 64.9549 10.267 65.6225C10.267 66.2937 10.1267 66.8974 9.84615 67.4336C9.56916 67.9663 9.15012 68.3888 8.58904 68.7013C8.03152 69.0103 7.33017 69.1648 6.485 69.1648H3.81099V67.7692H6.33585C6.87207 67.7692 7.30708 67.6768 7.64089 67.4922C7.9747 67.304 8.21973 67.0483 8.37598 66.7251C8.53223 66.402 8.61035 66.0344 8.61035 65.6225C8.61035 65.2106 8.53223 64.8448 8.37598 64.5252C8.21973 64.2056 7.97292 63.9553 7.63556 63.7741C7.30176 63.593 6.86142 63.5025 6.31454 63.5025H4.24778V73H2.60183ZM15.4126 73.1651C14.6455 73.1651 13.9761 72.9893 13.4044 72.6378C12.8327 72.2862 12.3888 71.7944 12.0727 71.1623C11.7567 70.5302 11.5986 69.7915 11.5986 68.9464C11.5986 68.0977 11.7567 67.3555 12.0727 66.7198C12.3888 66.0842 12.8327 65.5906 13.4044 65.239C13.9761 64.8874 14.6455 64.7116 15.4126 64.7116C16.1796 64.7116 16.849 64.8874 17.4207 65.239C17.9925 65.5906 18.4363 66.0842 18.7524 66.7198C19.0684 67.3555 19.2265 68.0977 19.2265 68.9464C19.2265 69.7915 19.0684 70.5302 18.7524 71.1623C18.4363 71.7944 17.9925 72.2862 17.4207 72.6378C16.849 72.9893 16.1796 73.1651 15.4126 73.1651ZM15.4179 71.8281C15.915 71.8281 16.327 71.6967 16.6537 71.4339C16.9804 71.1712 17.2219 70.8214 17.3781 70.3846C17.5379 69.9478 17.6178 69.4666 17.6178 68.9411C17.6178 68.419 17.5379 67.9396 17.3781 67.5028C17.2219 67.0625 16.9804 66.7092 16.6537 66.4428C16.327 66.1765 15.915 66.0433 15.4179 66.0433C14.9172 66.0433 14.5017 66.1765 14.1714 66.4428C13.8447 66.7092 13.6015 67.0625 13.4417 67.5028C13.2854 67.9396 13.2073 68.419 13.2073 68.9411C13.2073 69.4666 13.2854 69.9478 13.4417 70.3846C13.6015 70.8214 13.8447 71.1712 14.1714 71.4339C14.5017 71.6967 14.9172 71.8281 15.4179 71.8281ZM22.5969 62.0909V73H21.0043V62.0909H22.5969ZM26.3323 62.0909V73H24.7396V62.0909H26.3323ZM31.9213 73.1651C31.1543 73.1651 30.4849 72.9893 29.9132 72.6378C29.3414 72.2862 28.8975 71.7944 28.5815 71.1623C28.2654 70.5302 28.1074 69.7915 28.1074 68.9464C28.1074 68.0977 28.2654 67.3555 28.5815 66.7198C28.8975 66.0842 29.3414 65.5906 29.9132 65.239C30.4849 64.8874 31.1543 64.7116 31.9213 64.7116C32.6884 64.7116 33.3578 64.8874 33.9295 65.239C34.5012 65.5906 34.9451 66.0842 35.2612 66.7198C35.5772 67.3555 35.7353 68.0977 35.7353 68.9464C35.7353 69.7915 35.5772 70.5302 35.2612 71.1623C34.9451 71.7944 34.5012 72.2862 33.9295 72.6378C33.3578 72.9893 32.6884 73.1651 31.9213 73.1651ZM31.9267 71.8281C32.4238 71.8281 32.8358 71.6967 33.1625 71.4339C33.4892 71.1712 33.7306 70.8214 33.8869 70.3846C34.0467 69.9478 34.1266 69.4666 34.1266 68.9411C34.1266 68.419 34.0467 67.9396 33.8869 67.5028C33.7306 67.0625 33.4892 66.7092 33.1625 66.4428C32.8358 66.1765 32.4238 66.0433 31.9267 66.0433C31.426 66.0433 31.0105 66.1765 30.6802 66.4428C30.3535 66.7092 30.1103 67.0625 29.9505 67.5028C29.7942 67.9396 29.7161 68.419 29.7161 68.9411C29.7161 69.4666 29.7942 69.9478 29.9505 70.3846C30.1103 70.8214 30.3535 71.1712 30.6802 71.4339C31.0105 71.6967 31.426 71.8281 31.9267 71.8281ZM45.3766 64.8182V66.0966H40.753V64.8182H45.3766ZM42.0208 73V63.87C42.0208 63.3587 42.1326 62.9343 42.3564 62.5969C42.5801 62.256 42.8766 62.0021 43.2459 61.8352C43.6152 61.6648 44.0165 61.5795 44.4498 61.5795C44.7694 61.5795 45.0428 61.6062 45.2701 61.6594C45.4973 61.7092 45.666 61.7553 45.7761 61.7979L45.4032 63.087C45.3287 63.0657 45.2328 63.0408 45.1156 63.0124C44.9984 62.9805 44.8564 62.9645 44.6895 62.9645C44.3024 62.9645 44.0254 63.0604 43.8585 63.2521C43.6951 63.4439 43.6135 63.7209 43.6135 64.0831V73H42.0208ZM49.1519 73.1811C48.6334 73.1811 48.1647 73.0852 47.7456 72.8935C47.3266 72.6982 46.9946 72.4158 46.7496 72.0465C46.5081 71.6772 46.3873 71.2244 46.3873 70.6882C46.3873 70.2266 46.4761 69.8466 46.6537 69.5483C46.8312 69.25 47.0709 69.0138 47.3728 68.8398C47.6746 68.6658 48.012 68.5344 48.3849 68.4457C48.7577 68.3569 49.1377 68.2894 49.5248 68.2433C50.0148 68.1864 50.4126 68.1403 50.718 68.1048C51.0233 68.0657 51.2453 68.0036 51.3838 67.9183C51.5223 67.8331 51.5915 67.6946 51.5915 67.5028V67.4656C51.5915 67.0004 51.4601 66.6399 51.1974 66.3842C50.9381 66.1286 50.551 66.0007 50.0361 66.0007C49.4999 66.0007 49.0773 66.1197 48.7684 66.3576C48.463 66.592 48.2517 66.853 48.1345 67.1406L46.6377 66.7997C46.8153 66.3026 47.0745 65.9013 47.4154 65.5959C47.7599 65.2869 48.1558 65.0632 48.6032 64.9247C49.0507 64.7827 49.5212 64.7116 50.0148 64.7116C50.3415 64.7116 50.6878 64.7507 51.0535 64.8288C51.4229 64.9034 51.7673 65.0419 52.0869 65.2443C52.4101 65.4467 52.6746 65.7362 52.8806 66.1126C53.0866 66.4854 53.1895 66.9702 53.1895 67.5668V73H51.6341V71.8814H51.5702C51.4672 72.0874 51.3128 72.2898 51.1068 72.4886C50.9008 72.6875 50.6363 72.8526 50.3131 72.984C49.99 73.1154 49.6029 73.1811 49.1519 73.1811ZM49.4981 71.9027C49.9385 71.9027 50.3149 71.8157 50.6274 71.6417C50.9434 71.4677 51.1832 71.2404 51.3465 70.9599C51.5134 70.6758 51.5969 70.3722 51.5969 70.049V68.9943C51.54 69.0511 51.43 69.1044 51.2666 69.1541C51.1068 69.2003 50.9239 69.2411 50.718 69.2766C50.512 69.3086 50.3113 69.3388 50.116 69.3672C49.9207 69.392 49.7574 69.4134 49.626 69.4311C49.317 69.4702 49.0347 69.5359 48.779 69.6282C48.5269 69.7205 48.3245 69.8537 48.1718 70.0277C48.0226 70.1982 47.9481 70.4254 47.9481 70.7095C47.9481 71.1037 48.0937 71.402 48.3849 71.6044C48.676 71.8033 49.0471 71.9027 49.4981 71.9027ZM55.3109 73V64.8182H56.8397V66.1499H56.9409C57.1113 65.6989 57.3901 65.3473 57.7772 65.0952C58.1642 64.8395 58.6277 64.7116 59.1674 64.7116C59.7143 64.7116 60.1724 64.8395 60.5417 65.0952C60.9146 65.3509 61.1898 65.7024 61.3674 66.1499H61.4526C61.6479 65.7131 61.9586 65.3651 62.3848 65.1058C62.8109 64.843 63.3187 64.7116 63.9082 64.7116C64.6504 64.7116 65.2559 64.9442 65.7246 65.4094C66.1969 65.8746 66.4331 66.576 66.4331 67.5135V73H64.8404V67.6626C64.8404 67.1087 64.6895 66.7074 64.3876 66.4588C64.0858 66.2102 63.7253 66.0859 63.3063 66.0859C62.7878 66.0859 62.3848 66.2457 62.0971 66.5653C61.8095 66.8814 61.6657 67.288 61.6657 67.7852V73H60.0783V67.5614C60.0783 67.1175 59.9398 66.7607 59.6628 66.4908C59.3858 66.2209 59.0254 66.0859 58.5815 66.0859C58.2797 66.0859 58.0009 66.1658 57.7452 66.3256C57.4931 66.4819 57.2889 66.7003 57.1326 66.9808C56.9799 67.2614 56.9036 67.5863 56.9036 67.9556V73H55.3109ZM68.5677 73V64.8182H70.1604V73H68.5677ZM69.3721 63.5558C69.0951 63.5558 68.8572 63.4634 68.6583 63.2788C68.463 63.0906 68.3653 62.8668 68.3653 62.6076C68.3653 62.3448 68.463 62.1211 68.6583 61.9364C68.8572 61.7482 69.0951 61.6541 69.3721 61.6541C69.6491 61.6541 69.8852 61.7482 70.0805 61.9364C70.2794 62.1211 70.3788 62.3448 70.3788 62.6076C70.3788 62.8668 70.2794 63.0906 70.0805 63.2788C69.8852 63.4634 69.6491 63.5558 69.3721 63.5558ZM73.8958 62.0909V73H72.3031V62.0909H73.8958ZM76.0384 73V64.8182H77.6311V73H76.0384ZM76.8428 63.5558C76.5658 63.5558 76.3279 63.4634 76.129 63.2788C75.9337 63.0906 75.836 62.8668 75.836 62.6076C75.836 62.3448 75.9337 62.1211 76.129 61.9364C76.3279 61.7482 76.5658 61.6541 76.8428 61.6541C77.1198 61.6541 77.3559 61.7482 77.5512 61.9364C77.7501 62.1211 77.8495 62.3448 77.8495 62.6076C77.8495 62.8668 77.7501 63.0906 77.5512 63.2788C77.3559 63.4634 77.1198 63.5558 76.8428 63.5558ZM82.1548 73.1811C81.6364 73.1811 81.1676 73.0852 80.7486 72.8935C80.3295 72.6982 79.9975 72.4158 79.7525 72.0465C79.511 71.6772 79.3903 71.2244 79.3903 70.6882C79.3903 70.2266 79.479 69.8466 79.6566 69.5483C79.8342 69.25 80.0739 69.0138 80.3757 68.8398C80.6776 68.6658 81.0149 68.5344 81.3878 68.4457C81.7607 68.3569 82.1406 68.2894 82.5277 68.2433C83.0178 68.1864 83.4155 68.1403 83.7209 68.1048C84.0263 68.0657 84.2482 68.0036 84.3867 67.9183C84.5252 67.8331 84.5945 67.6946 84.5945 67.5028V67.4656C84.5945 67.0004 84.4631 66.6399 84.2003 66.3842C83.9411 66.1286 83.554 66.0007 83.0391 66.0007C82.5028 66.0007 82.0803 66.1197 81.7713 66.3576C81.4659 66.592 81.2546 66.853 81.1374 67.1406L79.6406 66.7997C79.8182 66.3026 80.0774 65.9013 80.4183 65.5959C80.7628 65.2869 81.1587 65.0632 81.6062 64.9247C82.0536 64.7827 82.5241 64.7116 83.0178 64.7116C83.3445 64.7116 83.6907 64.7507 84.0565 64.8288C84.4258 64.9034 84.7702 65.0419 85.0898 65.2443C85.413 65.4467 85.6776 65.7362 85.8835 66.1126C86.0895 66.4854 86.1925 66.9702 86.1925 67.5668V73H84.6371V71.8814H84.5732C84.4702 72.0874 84.3157 72.2898 84.1097 72.4886C83.9038 72.6875 83.6392 72.8526 83.3161 72.984C82.9929 73.1154 82.6058 73.1811 82.1548 73.1811ZM82.5011 71.9027C82.9414 71.9027 83.3178 71.8157 83.6303 71.6417C83.9464 71.4677 84.1861 71.2404 84.3494 70.9599C84.5163 70.6758 84.5998 70.3722 84.5998 70.049V68.9943C84.543 69.0511 84.4329 69.1044 84.2695 69.1541C84.1097 69.2003 83.9268 69.2411 83.7209 69.2766C83.5149 69.3086 83.3143 69.3388 83.119 69.3672C82.9237 69.392 82.7603 69.4134 82.6289 69.4311C82.32 69.4702 82.0376 69.5359 81.782 69.6282C81.5298 69.7205 81.3274 69.8537 81.1747 70.0277C81.0256 70.1982 80.951 70.4254 80.951 70.7095C80.951 71.1037 81.0966 71.402 81.3878 71.6044C81.679 71.8033 82.0501 71.9027 82.5011 71.9027ZM88.3138 73V64.8182H89.8532V66.1179H89.9385C90.0876 65.6776 90.3504 65.3313 90.7268 65.0792C91.1068 64.8235 91.5365 64.6957 92.0159 64.6957C92.1153 64.6957 92.2325 64.6992 92.3675 64.7063C92.5059 64.7134 92.6143 64.7223 92.6924 64.733V66.2564C92.6285 66.2386 92.5148 66.2191 92.3515 66.1978C92.1881 66.1729 92.0248 66.1605 91.8614 66.1605C91.485 66.1605 91.1494 66.2404 90.8547 66.4002C90.5635 66.5565 90.3327 66.7749 90.1622 67.0554C89.9917 67.3324 89.9065 67.6484 89.9065 68.0036V73H88.3138Z" fill="#615E83"/>
<rect x="1" y="85" width="469" height="16" rx="4" fill="#F8F8FF"/>
<rect x="2" y="85" width="298" height="16" rx="4" fill="#A0AEC0"/>
<path d="M480.98 129.149C480.249 129.149 479.595 129.023 479.02 128.771C478.448 128.519 477.995 128.169 477.662 127.722C477.331 127.271 477.154 126.749 477.129 126.156H478.801C478.823 126.479 478.931 126.759 479.126 126.997C479.325 127.232 479.585 127.413 479.904 127.54C480.224 127.668 480.579 127.732 480.969 127.732C481.399 127.732 481.779 127.658 482.109 127.509C482.443 127.359 482.704 127.152 482.892 126.885C483.081 126.615 483.175 126.305 483.175 125.953C483.175 125.587 483.081 125.266 482.892 124.989C482.708 124.708 482.436 124.488 482.077 124.328C481.722 124.169 481.293 124.089 480.788 124.089H479.867V122.746H480.788C481.193 122.746 481.548 122.674 481.854 122.528C482.163 122.382 482.404 122.18 482.578 121.921C482.752 121.658 482.839 121.351 482.839 120.999C482.839 120.662 482.763 120.369 482.61 120.12C482.461 119.868 482.248 119.671 481.971 119.529C481.697 119.387 481.374 119.316 481.001 119.316C480.646 119.316 480.314 119.382 480.005 119.513C479.7 119.641 479.451 119.826 479.26 120.067C479.068 120.305 478.965 120.591 478.951 120.925H477.358C477.376 120.335 477.55 119.817 477.88 119.369C478.214 118.922 478.654 118.572 479.201 118.32C479.748 118.068 480.355 117.942 481.023 117.942C481.722 117.942 482.326 118.078 482.834 118.352C483.345 118.622 483.739 118.982 484.016 119.433C484.297 119.884 484.435 120.378 484.432 120.914C484.435 121.525 484.265 122.043 483.92 122.469C483.58 122.896 483.125 123.181 482.557 123.327V123.412C483.281 123.522 483.842 123.81 484.24 124.275C484.641 124.74 484.84 125.317 484.837 126.006C484.84 126.607 484.673 127.145 484.336 127.62C484.002 128.096 483.546 128.471 482.967 128.744C482.388 129.014 481.726 129.149 480.98 129.149ZM486.85 129V127.807L490.542 123.982C490.936 123.567 491.261 123.203 491.516 122.89C491.776 122.574 491.969 122.274 492.097 121.99C492.225 121.706 492.289 121.404 492.289 121.085C492.289 120.722 492.203 120.41 492.033 120.147C491.863 119.881 491.63 119.676 491.335 119.534C491.04 119.389 490.708 119.316 490.339 119.316C489.949 119.316 489.608 119.396 489.316 119.556C489.025 119.716 488.801 119.941 488.645 120.232C488.489 120.523 488.411 120.864 488.411 121.255H486.839C486.839 120.591 486.992 120.01 487.298 119.513C487.603 119.016 488.022 118.631 488.555 118.357C489.087 118.08 489.693 117.942 490.371 117.942C491.056 117.942 491.66 118.078 492.182 118.352C492.708 118.622 493.118 118.991 493.413 119.46C493.707 119.925 493.855 120.451 493.855 121.037C493.855 121.441 493.778 121.837 493.626 122.224C493.477 122.612 493.216 123.043 492.843 123.519C492.47 123.991 491.951 124.565 491.287 125.239L489.119 127.509V127.588H494.031V129H486.85Z" fill="#1E1E1E"/>
<path d="M10.2592 126.638H8.5973C8.53338 126.283 8.41442 125.971 8.24041 125.701C8.06641 125.431 7.85334 125.202 7.60121 125.014C7.34908 124.826 7.06676 124.684 6.75426 124.588C6.44531 124.492 6.11683 124.444 5.76882 124.444C5.14027 124.444 4.57741 124.602 4.08026 124.918C3.58665 125.234 3.19602 125.697 2.90838 126.308C2.62429 126.919 2.48224 127.665 2.48224 128.545C2.48224 129.433 2.62429 130.183 2.90838 130.793C3.19602 131.404 3.58842 131.866 4.08558 132.178C4.58274 132.491 5.14205 132.647 5.76349 132.647C6.10795 132.647 6.43466 132.601 6.74361 132.509C7.05611 132.413 7.33842 132.272 7.59055 132.088C7.84268 131.903 8.05575 131.678 8.22976 131.411C8.40732 131.141 8.52983 130.832 8.5973 130.484L10.2592 130.49C10.1705 131.026 9.99822 131.52 9.74254 131.971C9.49041 132.418 9.16548 132.805 8.76776 133.132C8.37358 133.455 7.92259 133.705 7.41477 133.883C6.90696 134.06 6.35298 134.149 5.75284 134.149C4.80824 134.149 3.96662 133.925 3.22798 133.478C2.48935 133.027 1.90696 132.382 1.48082 131.544C1.05824 130.706 0.846946 129.707 0.846946 128.545C0.846946 127.381 1.06001 126.381 1.48615 125.547C1.91229 124.708 2.49467 124.066 3.23331 123.618C3.97195 123.167 4.81179 122.942 5.75284 122.942C6.33168 122.942 6.87145 123.025 7.37216 123.192C7.87642 123.355 8.32919 123.597 8.73047 123.917C9.13175 124.233 9.46378 124.62 9.72656 125.078C9.98935 125.532 10.1669 126.053 10.2592 126.638ZM13.6936 129.142V134H12.1009V123.091H13.6723V127.15H13.7735C13.9653 126.71 14.2583 126.36 14.6524 126.1C15.0466 125.841 15.5615 125.712 16.1972 125.712C16.7583 125.712 17.2483 125.827 17.6673 126.058C18.0899 126.289 18.4166 126.633 18.6475 127.091C18.8818 127.546 18.999 128.114 18.999 128.796V134H17.4063V128.988C17.4063 128.387 17.2519 127.922 16.9429 127.592C16.634 127.258 16.2043 127.091 15.6539 127.091C15.2774 127.091 14.9401 127.171 14.6418 127.331C14.347 127.491 14.1144 127.725 13.944 128.034C13.7771 128.339 13.6936 128.709 13.6936 129.142ZM23.5054 134.181C22.9869 134.181 22.5182 134.085 22.0992 133.893C21.6801 133.698 21.3481 133.416 21.1031 133.047C20.8616 132.677 20.7409 132.224 20.7409 131.688C20.7409 131.227 20.8296 130.847 21.0072 130.548C21.1847 130.25 21.4244 130.014 21.7263 129.84C22.0281 129.666 22.3655 129.534 22.7384 129.446C23.1112 129.357 23.4912 129.289 23.8783 129.243C24.3683 129.186 24.7661 129.14 25.0715 129.105C25.3769 129.066 25.5988 129.004 25.7373 128.918C25.8758 128.833 25.945 128.695 25.945 128.503V128.466C25.945 128 25.8137 127.64 25.5509 127.384C25.2916 127.129 24.9046 127.001 24.3896 127.001C23.8534 127.001 23.4308 127.12 23.1219 127.358C22.8165 127.592 22.6052 127.853 22.488 128.141L20.9912 127.8C21.1688 127.303 21.428 126.901 21.7689 126.596C22.1134 126.287 22.5093 126.063 22.9568 125.925C23.4042 125.783 23.8747 125.712 24.3683 125.712C24.695 125.712 25.0413 125.751 25.407 125.829C25.7764 125.903 26.1208 126.042 26.4404 126.244C26.7636 126.447 27.0281 126.736 27.2341 127.113C27.4401 127.485 27.5431 127.97 27.5431 128.567V134H25.9877V132.881H25.9237C25.8208 133.087 25.6663 133.29 25.4603 133.489C25.2544 133.687 24.9898 133.853 24.6666 133.984C24.3435 134.115 23.9564 134.181 23.5054 134.181ZM23.8517 132.903C24.292 132.903 24.6684 132.816 24.9809 132.642C25.297 132.468 25.5367 132.24 25.7 131.96C25.8669 131.676 25.9504 131.372 25.9504 131.049V129.994C25.8936 130.051 25.7835 130.104 25.6201 130.154C25.4603 130.2 25.2774 130.241 25.0715 130.277C24.8655 130.309 24.6649 130.339 24.4695 130.367C24.2742 130.392 24.1109 130.413 23.9795 130.431C23.6705 130.47 23.3882 130.536 23.1325 130.628C22.8804 130.721 22.678 130.854 22.5253 131.028C22.3762 131.198 22.3016 131.425 22.3016 131.71C22.3016 132.104 22.4472 132.402 22.7384 132.604C23.0296 132.803 23.4007 132.903 23.8517 132.903ZM34.8473 130.607V125.818H36.4453V134H34.8793V132.583H34.794C34.6058 133.02 34.304 133.384 33.8885 133.675C33.4766 133.963 32.9634 134.107 32.3491 134.107C31.8235 134.107 31.3583 133.991 30.9535 133.76C30.5522 133.526 30.2362 133.18 30.0053 132.722C29.7781 132.263 29.6644 131.697 29.6644 131.022V125.818H31.2571V130.831C31.2571 131.388 31.4116 131.832 31.7205 132.162C32.0295 132.493 32.4308 132.658 32.9244 132.658C33.2227 132.658 33.5192 132.583 33.8139 132.434C34.1122 132.285 34.359 132.059 34.5543 131.757C34.7532 131.456 34.8509 131.072 34.8473 130.607ZM42.4791 125.818V127.097H37.8556V125.818H42.4791ZM39.1233 134V124.87C39.1233 124.359 39.2352 123.934 39.4589 123.597C39.6826 123.256 39.9791 123.002 40.3485 122.835C40.7178 122.665 41.1191 122.58 41.5523 122.58C41.8719 122.58 42.1453 122.606 42.3726 122.659C42.5999 122.709 42.7686 122.755 42.8786 122.798L42.5058 124.087C42.4312 124.066 42.3353 124.041 42.2181 124.012C42.1009 123.98 41.9589 123.964 41.792 123.964C41.4049 123.964 41.1279 124.06 40.961 124.252C40.7977 124.444 40.716 124.721 40.716 125.083V134H39.1233ZM46.2544 134.181C45.736 134.181 45.2672 134.085 44.8482 133.893C44.4292 133.698 44.0971 133.416 43.8521 133.047C43.6106 132.677 43.4899 132.224 43.4899 131.688C43.4899 131.227 43.5787 130.847 43.7562 130.548C43.9338 130.25 44.1735 130.014 44.4753 129.84C44.7772 129.666 45.1145 129.534 45.4874 129.446C45.8603 129.357 46.2402 129.289 46.6273 129.243C47.1174 129.186 47.5151 129.14 47.8205 129.105C48.1259 129.066 48.3478 129.004 48.4863 128.918C48.6248 128.833 48.6941 128.695 48.6941 128.503V128.466C48.6941 128 48.5627 127.64 48.2999 127.384C48.0407 127.129 47.6536 127.001 47.1387 127.001C46.6025 127.001 46.1799 127.12 45.8709 127.358C45.5655 127.592 45.3542 127.853 45.237 128.141L43.7402 127.8C43.9178 127.303 44.177 126.901 44.5179 126.596C44.8624 126.287 45.2583 126.063 45.7058 125.925C46.1532 125.783 46.6238 125.712 47.1174 125.712C47.4441 125.712 47.7903 125.751 48.1561 125.829C48.5254 125.903 48.8699 126.042 49.1895 126.244C49.5126 126.447 49.7772 126.736 49.9831 127.113C50.1891 127.485 50.2921 127.97 50.2921 128.567V134H48.7367V132.881H48.6728C48.5698 133.087 48.4153 133.29 48.2093 133.489C48.0034 133.687 47.7388 133.853 47.4157 133.984C47.0925 134.115 46.7054 134.181 46.2544 134.181ZM46.6007 132.903C47.041 132.903 47.4174 132.816 47.7299 132.642C48.046 132.468 48.2857 132.24 48.449 131.96C48.6159 131.676 48.6994 131.372 48.6994 131.049V129.994C48.6426 130.051 48.5325 130.104 48.3691 130.154C48.2093 130.2 48.0265 130.241 47.8205 130.277C47.6145 130.309 47.4139 130.339 47.2186 130.367C47.0233 130.392 46.8599 130.413 46.7285 130.431C46.4196 130.47 46.1373 130.536 45.8816 130.628C45.6294 130.721 45.427 130.854 45.2743 131.028C45.1252 131.198 45.0506 131.425 45.0506 131.71C45.0506 132.104 45.1962 132.402 45.4874 132.604C45.7786 132.803 46.1497 132.903 46.6007 132.903Z" fill="#615E83"/>
<rect x="1" y="150" width="469" height="16" rx="4" fill="#F8F8FF"/>
<rect x="2" y="150" width="170" height="16" rx="4" fill="#A0AEC0"/>
<path d="M483.899 177.091V188H482.248V178.742H482.184L479.574 180.447V178.87L482.296 177.091H483.899ZM486.85 188V186.807L490.542 182.982C490.936 182.567 491.261 182.203 491.516 181.89C491.776 181.574 491.969 181.274 492.097 180.99C492.225 180.706 492.289 180.404 492.289 180.085C492.289 179.722 492.203 179.41 492.033 179.147C491.863 178.881 491.63 178.676 491.335 178.534C491.04 178.389 490.708 178.316 490.339 178.316C489.949 178.316 489.608 178.396 489.316 178.556C489.025 178.716 488.801 178.941 488.645 179.232C488.489 179.523 488.411 179.864 488.411 180.255H486.839C486.839 179.591 486.992 179.01 487.298 178.513C487.603 178.016 488.022 177.631 488.555 177.357C489.087 177.08 489.693 176.942 490.371 176.942C491.056 176.942 491.66 177.078 492.182 177.352C492.708 177.622 493.118 177.991 493.413 178.46C493.707 178.925 493.855 179.451 493.855 180.037C493.855 180.441 493.778 180.837 493.626 181.224C493.477 181.612 493.216 182.043 492.843 182.519C492.47 182.991 491.951 183.565 491.287 184.239L489.119 186.509V186.588H494.031V188H486.85Z" fill="#1E1E1E"/>
<path d="M0.660511 183.508V182.091H9.10334V183.508H5.69957V193H4.05895V183.508H0.660511ZM13.101 193.165C12.334 193.165 11.6646 192.989 11.0929 192.638C10.5211 192.286 10.0772 191.794 9.76119 191.162C9.44513 190.53 9.28711 189.792 9.28711 188.946C9.28711 188.098 9.44513 187.355 9.76119 186.72C10.0772 186.084 10.5211 185.591 11.0929 185.239C11.6646 184.887 12.334 184.712 13.101 184.712C13.8681 184.712 14.5375 184.887 15.1092 185.239C15.6809 185.591 16.1248 186.084 16.4409 186.72C16.7569 187.355 16.915 188.098 16.915 188.946C16.915 189.792 16.7569 190.53 16.4409 191.162C16.1248 191.794 15.6809 192.286 15.1092 192.638C14.5375 192.989 13.8681 193.165 13.101 193.165ZM13.1064 191.828C13.6035 191.828 14.0154 191.697 14.3422 191.434C14.6689 191.171 14.9103 190.821 15.0666 190.385C15.2264 189.948 15.3063 189.467 15.3063 188.941C15.3063 188.419 15.2264 187.94 15.0666 187.503C14.9103 187.062 14.6689 186.709 14.3422 186.443C14.0154 186.176 13.6035 186.043 13.1064 186.043C12.6056 186.043 12.1902 186.176 11.8599 186.443C11.5332 186.709 11.29 187.062 11.1301 187.503C10.9739 187.94 10.8958 188.419 10.8958 188.941C10.8958 189.467 10.9739 189.948 11.1301 190.385C11.29 190.821 11.5332 191.171 11.8599 191.434C12.1902 191.697 12.6056 191.828 13.1064 191.828ZM18.6927 193V184.818H20.2322V186.118H20.3174C20.4665 185.678 20.7293 185.331 21.1057 185.079C21.4857 184.824 21.9154 184.696 22.3948 184.696C22.4942 184.696 22.6114 184.699 22.7464 184.706C22.8849 184.713 22.9932 184.722 23.0713 184.733V186.256C23.0074 186.239 22.8937 186.219 22.7304 186.198C22.567 186.173 22.4037 186.161 22.2403 186.161C21.8639 186.161 21.5283 186.24 21.2336 186.4C20.9424 186.556 20.7116 186.775 20.5411 187.055C20.3706 187.332 20.2854 187.648 20.2854 188.004V193H18.6927ZM28.7522 184.818V186.097H24.2831V184.818H28.7522ZM25.4816 182.858H27.0743V190.598C27.0743 190.907 27.1205 191.139 27.2128 191.295C27.3051 191.448 27.4241 191.553 27.5697 191.61C27.7188 191.663 27.8804 191.69 28.0544 191.69C28.1823 191.69 28.2941 191.681 28.39 191.663C28.4859 191.645 28.5605 191.631 28.6137 191.62L28.9014 192.936C28.809 192.972 28.6776 193.007 28.5072 193.043C28.3367 193.082 28.1237 193.103 27.868 193.107C27.449 193.114 27.0583 193.039 26.6961 192.883C26.3339 192.727 26.0409 192.485 25.8172 192.158C25.5935 191.832 25.4816 191.422 25.4816 190.928V182.858ZM32.8951 193.181C32.3766 193.181 31.9078 193.085 31.4888 192.893C31.0698 192.698 30.7377 192.416 30.4927 192.047C30.2512 191.677 30.1305 191.224 30.1305 190.688C30.1305 190.227 30.2193 189.847 30.3968 189.548C30.5744 189.25 30.8141 189.014 31.1159 188.84C31.4178 188.666 31.7551 188.534 32.128 188.446C32.5009 188.357 32.8809 188.289 33.2679 188.243C33.758 188.186 34.1557 188.14 34.4611 188.105C34.7665 188.066 34.9885 188.004 35.127 187.918C35.2654 187.833 35.3347 187.695 35.3347 187.503V187.466C35.3347 187 35.2033 186.64 34.9405 186.384C34.6813 186.129 34.2942 186.001 33.7793 186.001C33.2431 186.001 32.8205 186.12 32.5115 186.358C32.2061 186.592 31.9949 186.853 31.8777 187.141L30.3809 186.8C30.5584 186.303 30.8176 185.901 31.1586 185.596C31.503 185.287 31.899 185.063 32.3464 184.925C32.7939 184.783 33.2644 184.712 33.758 184.712C34.0847 184.712 34.4309 184.751 34.7967 184.829C35.166 184.903 35.5105 185.042 35.8301 185.244C36.1532 185.447 36.4178 185.736 36.6238 186.113C36.8297 186.485 36.9327 186.97 36.9327 187.567V193H35.3773V191.881H35.3134C35.2104 192.087 35.0559 192.29 34.85 192.489C34.644 192.687 34.3794 192.853 34.0563 192.984C33.7331 193.115 33.3461 193.181 32.8951 193.181ZM33.2413 191.903C33.6816 191.903 34.0581 191.816 34.3706 191.642C34.6866 191.468 34.9263 191.24 35.0897 190.96C35.2566 190.676 35.34 190.372 35.34 190.049V188.994C35.2832 189.051 35.1731 189.104 35.0098 189.154C34.85 189.2 34.6671 189.241 34.4611 189.277C34.2551 189.309 34.0545 189.339 33.8592 189.367C33.6639 189.392 33.5005 189.413 33.3691 189.431C33.0602 189.47 32.7779 189.536 32.5222 189.628C32.2701 189.721 32.0676 189.854 31.915 190.028C31.7658 190.198 31.6912 190.425 31.6912 190.71C31.6912 191.104 31.8368 191.402 32.128 191.604C32.4192 191.803 32.7903 191.903 33.2413 191.903ZM46.0866 193.16C45.4261 193.16 44.8366 192.991 44.3182 192.654C43.8033 192.313 43.3984 191.828 43.1037 191.2C42.8125 190.567 42.6669 189.809 42.6669 188.925C42.6669 188.041 42.8143 187.284 43.109 186.656C43.4073 186.027 43.8157 185.546 44.3342 185.212C44.8526 184.879 45.4403 184.712 46.0973 184.712C46.6051 184.712 47.0135 184.797 47.3224 184.967C47.6349 185.134 47.8764 185.33 48.0469 185.553C48.2209 185.777 48.3558 185.974 48.4517 186.145H48.5476V182.091H50.1403V193H48.5849V191.727H48.4517C48.3558 191.901 48.2173 192.1 48.0362 192.324C47.8587 192.547 47.6136 192.743 47.3011 192.909C46.9886 193.076 46.5838 193.16 46.0866 193.16ZM46.4382 191.801C46.8963 191.801 47.2834 191.681 47.5994 191.439C47.919 191.194 48.1605 190.855 48.3239 190.422C48.4908 189.989 48.5742 189.484 48.5742 188.909C48.5742 188.341 48.4925 187.844 48.3292 187.418C48.1658 186.991 47.9261 186.659 47.6101 186.422C47.294 186.184 46.9034 186.065 46.4382 186.065C45.9588 186.065 45.5593 186.189 45.2397 186.438C44.9201 186.686 44.6786 187.025 44.5153 187.455C44.3555 187.885 44.2756 188.369 44.2756 188.909C44.2756 189.456 44.3572 189.948 44.5206 190.385C44.6839 190.821 44.9254 191.168 45.245 191.423C45.5682 191.675 45.9659 191.801 46.4382 191.801ZM55.9397 193.165C55.1336 193.165 54.4394 192.993 53.857 192.648C53.2781 192.3 52.8307 191.812 52.5146 191.184C52.2021 190.551 52.0459 189.811 52.0459 188.962C52.0459 188.124 52.2021 187.386 52.5146 186.746C52.8307 186.107 53.271 185.608 53.8357 185.25C54.4039 184.891 55.0679 184.712 55.8279 184.712C56.2895 184.712 56.7369 184.788 57.1702 184.941C57.6034 185.093 57.9923 185.333 58.3367 185.66C58.6812 185.987 58.9529 186.411 59.1517 186.933C59.3506 187.451 59.45 188.082 59.45 188.824V189.388H52.9461V188.195H57.8893C57.8893 187.776 57.8041 187.405 57.6336 187.082C57.4632 186.755 57.2235 186.498 56.9145 186.31C56.6091 186.121 56.2504 186.027 55.8385 186.027C55.3911 186.027 55.0004 186.137 54.6666 186.358C54.3364 186.574 54.0807 186.858 53.8996 187.21C53.722 187.558 53.6333 187.936 53.6333 188.344V189.277C53.6333 189.824 53.7291 190.289 53.9209 190.672C54.1162 191.056 54.3879 191.349 54.7359 191.551C55.0839 191.75 55.4905 191.849 55.9557 191.849C56.2575 191.849 56.5328 191.807 56.7813 191.722C57.0299 191.633 57.2448 191.501 57.4259 191.327C57.607 191.153 57.7455 190.939 57.8414 190.683L59.3488 190.955C59.2281 191.398 59.0115 191.787 58.699 192.121C58.39 192.451 58.0012 192.709 57.5324 192.893C57.0672 193.075 56.5363 193.165 55.9397 193.165ZM68.6333 193.165C67.8414 193.165 67.1595 192.986 66.5878 192.627C66.0196 192.265 65.5828 191.766 65.2774 191.13C64.972 190.495 64.8193 189.767 64.8193 188.946C64.8193 188.115 64.9756 187.382 65.2881 186.746C65.6006 186.107 66.0409 185.608 66.6091 185.25C67.1773 184.891 67.8467 184.712 68.6173 184.712C69.2387 184.712 69.7927 184.827 70.2792 185.058C70.7657 185.285 71.1581 185.605 71.4564 186.017C71.7583 186.429 71.9376 186.91 71.9944 187.46H70.4443C70.3591 187.077 70.1638 186.746 69.8584 186.469C69.5566 186.192 69.1517 186.054 68.6439 186.054C68.2 186.054 67.8112 186.171 67.4774 186.406C67.1471 186.636 66.8896 186.967 66.705 187.396C66.5203 187.822 66.428 188.327 66.428 188.909C66.428 189.506 66.5186 190.021 66.6997 190.454C66.8808 190.887 67.1365 191.223 67.4667 191.461C67.8005 191.699 68.1929 191.817 68.6439 191.817C68.9458 191.817 69.2192 191.762 69.4642 191.652C69.7128 191.539 69.9205 191.377 70.0874 191.168C70.2579 190.958 70.3769 190.706 70.4443 190.411H71.9944C71.9376 190.94 71.7654 191.413 71.4777 191.828C71.1901 192.244 70.8048 192.57 70.3218 192.808C69.8424 193.046 69.2796 193.165 68.6333 193.165ZM75.2903 188.142V193H73.6976V182.091H75.269V186.15H75.3702C75.562 185.71 75.8549 185.36 76.2491 185.1C76.6433 184.841 77.1582 184.712 77.7939 184.712C78.3549 184.712 78.845 184.827 79.264 185.058C79.6866 185.289 80.0133 185.633 80.2441 186.091C80.4785 186.546 80.5957 187.114 80.5957 187.796V193H79.003V187.988C79.003 187.387 78.8485 186.922 78.5396 186.592C78.2306 186.258 77.801 186.091 77.2505 186.091C76.8741 186.091 76.5368 186.171 76.2385 186.331C75.9437 186.491 75.7111 186.725 75.5407 187.034C75.3738 187.339 75.2903 187.709 75.2903 188.142ZM86.1674 193.165C85.4004 193.165 84.731 192.989 84.1593 192.638C83.5875 192.286 83.1436 191.794 82.8276 191.162C82.5115 190.53 82.3535 189.792 82.3535 188.946C82.3535 188.098 82.5115 187.355 82.8276 186.72C83.1436 186.084 83.5875 185.591 84.1593 185.239C84.731 184.887 85.4004 184.712 86.1674 184.712C86.9345 184.712 87.6039 184.887 88.1756 185.239C88.7473 185.591 89.1912 186.084 89.5073 186.72C89.8233 187.355 89.9814 188.098 89.9814 188.946C89.9814 189.792 89.8233 190.53 89.5073 191.162C89.1912 191.794 88.7473 192.286 88.1756 192.638C87.6039 192.989 86.9345 193.165 86.1674 193.165ZM86.1728 191.828C86.6699 191.828 87.0819 191.697 87.4086 191.434C87.7353 191.171 87.9767 190.821 88.133 190.385C88.2928 189.948 88.3727 189.467 88.3727 188.941C88.3727 188.419 88.2928 187.94 88.133 187.503C87.9767 187.062 87.7353 186.709 87.4086 186.443C87.0819 186.176 86.6699 186.043 86.1728 186.043C85.6721 186.043 85.2566 186.176 84.9263 186.443C84.5996 186.709 84.3564 187.062 84.1966 187.503C84.0403 187.94 83.9622 188.419 83.9622 188.941C83.9622 189.467 84.0403 189.948 84.1966 190.385C84.3564 190.821 84.5996 191.171 84.9263 191.434C85.2566 191.697 85.6721 191.828 86.1728 191.828ZM95.2055 193.165C94.4136 193.165 93.7318 192.986 93.1601 192.627C92.5919 192.265 92.1551 191.766 91.8497 191.13C91.5443 190.495 91.3916 189.767 91.3916 188.946C91.3916 188.115 91.5479 187.382 91.8604 186.746C92.1729 186.107 92.6132 185.608 93.1814 185.25C93.7496 184.891 94.4189 184.712 95.1895 184.712C95.811 184.712 96.365 184.827 96.8515 185.058C97.338 185.285 97.7304 185.605 98.0287 186.017C98.3305 186.429 98.5099 186.91 98.5667 187.46H97.0166C96.9314 187.077 96.7361 186.746 96.4307 186.469C96.1288 186.192 95.724 186.054 95.2162 186.054C94.7723 186.054 94.3834 186.171 94.0496 186.406C93.7194 186.636 93.4619 186.967 93.2773 187.396C93.0926 187.822 93.0003 188.327 93.0003 188.909C93.0003 189.506 93.0908 190.021 93.2719 190.454C93.453 190.887 93.7087 191.223 94.039 191.461C94.3728 191.699 94.7652 191.817 95.2162 191.817C95.518 191.817 95.7915 191.762 96.0365 191.652C96.2851 191.539 96.4928 191.377 96.6597 191.168C96.8302 190.958 96.9491 190.706 97.0166 190.411H98.5667C98.5099 190.94 98.3376 191.413 98.05 191.828C97.7623 192.244 97.377 192.57 96.8941 192.808C96.4147 193.046 95.8518 193.165 95.2055 193.165ZM103.716 193.165C102.949 193.165 102.28 192.989 101.708 192.638C101.136 192.286 100.692 191.794 100.376 191.162C100.06 190.53 99.9023 189.792 99.9023 188.946C99.9023 188.098 100.06 187.355 100.376 186.72C100.692 186.084 101.136 185.591 101.708 185.239C102.28 184.887 102.949 184.712 103.716 184.712C104.483 184.712 105.153 184.887 105.724 185.239C106.296 185.591 106.74 186.084 107.056 186.72C107.372 187.355 107.53 188.098 107.53 188.946C107.53 189.792 107.372 190.53 107.056 191.162C106.74 191.794 106.296 192.286 105.724 192.638C105.153 192.989 104.483 193.165 103.716 193.165ZM103.722 191.828C104.219 191.828 104.631 191.697 104.957 191.434C105.284 191.171 105.526 190.821 105.682 190.385C105.842 189.948 105.922 189.467 105.922 188.941C105.922 188.419 105.842 187.94 105.682 187.503C105.526 187.062 105.284 186.709 104.957 186.443C104.631 186.176 104.219 186.043 103.722 186.043C103.221 186.043 102.805 186.176 102.475 186.443C102.148 186.709 101.905 187.062 101.745 187.503C101.589 187.94 101.511 188.419 101.511 188.941C101.511 189.467 101.589 189.948 101.745 190.385C101.905 190.821 102.148 191.171 102.475 191.434C102.805 191.697 103.221 191.828 103.722 191.828ZM110.901 182.091V193H109.308V182.091H110.901ZM115.424 193.181C114.906 193.181 114.437 193.085 114.018 192.893C113.599 192.698 113.267 192.416 113.022 192.047C112.781 191.677 112.66 191.224 112.66 190.688C112.66 190.227 112.749 189.847 112.926 189.548C113.104 189.25 113.343 189.014 113.645 188.84C113.947 188.666 114.284 188.534 114.657 188.446C115.03 188.357 115.41 188.289 115.797 188.243C116.287 188.186 116.685 188.14 116.99 188.105C117.296 188.066 117.518 188.004 117.656 187.918C117.795 187.833 117.864 187.695 117.864 187.503V187.466C117.864 187 117.733 186.64 117.47 186.384C117.211 186.129 116.824 186.001 116.309 186.001C115.772 186.001 115.35 186.12 115.041 186.358C114.735 186.592 114.524 186.853 114.407 187.141L112.91 186.8C113.088 186.303 113.347 185.901 113.688 185.596C114.032 185.287 114.428 185.063 114.876 184.925C115.323 184.783 115.794 184.712 116.287 184.712C116.614 184.712 116.96 184.751 117.326 184.829C117.695 184.903 118.04 185.042 118.359 185.244C118.683 185.447 118.947 185.736 119.153 186.113C119.359 186.485 119.462 186.97 119.462 187.567V193H117.907V191.881H117.843C117.74 192.087 117.585 192.29 117.379 192.489C117.173 192.687 116.909 192.853 116.586 192.984C116.262 193.115 115.875 193.181 115.424 193.181ZM115.771 191.903C116.211 191.903 116.587 191.816 116.9 191.642C117.216 191.468 117.456 191.24 117.619 190.96C117.786 190.676 117.869 190.372 117.869 190.049V188.994C117.813 189.051 117.702 189.104 117.539 189.154C117.379 189.2 117.196 189.241 116.99 189.277C116.784 189.309 116.584 189.339 116.388 189.367C116.193 189.392 116.03 189.413 115.898 189.431C115.589 189.47 115.307 189.536 115.051 189.628C114.799 189.721 114.597 189.854 114.444 190.028C114.295 190.198 114.221 190.425 114.221 190.71C114.221 191.104 114.366 191.402 114.657 191.604C114.949 191.803 115.32 191.903 115.771 191.903ZM125.403 184.818V186.097H120.934V184.818H125.403ZM122.132 182.858H123.725V190.598C123.725 190.907 123.771 191.139 123.863 191.295C123.956 191.448 124.074 191.553 124.22 191.61C124.369 191.663 124.531 191.69 124.705 191.69C124.833 191.69 124.945 191.681 125.04 191.663C125.136 191.645 125.211 191.631 125.264 191.62L125.552 192.936C125.459 192.972 125.328 193.007 125.158 193.043C124.987 193.082 124.774 193.103 124.518 193.107C124.099 193.114 123.709 193.039 123.347 192.883C122.984 192.727 122.691 192.485 122.468 192.158C122.244 191.832 122.132 191.422 122.132 190.928V182.858ZM130.603 193.165C129.797 193.165 129.102 192.993 128.52 192.648C127.941 192.3 127.494 191.812 127.178 191.184C126.865 190.551 126.709 189.811 126.709 188.962C126.709 188.124 126.865 187.386 127.178 186.746C127.494 186.107 127.934 185.608 128.499 185.25C129.067 184.891 129.731 184.712 130.491 184.712C130.953 184.712 131.4 184.788 131.833 184.941C132.267 185.093 132.655 185.333 133 185.66C133.344 185.987 133.616 186.411 133.815 186.933C134.014 187.451 134.113 188.082 134.113 188.824V189.388H127.609V188.195H132.552C132.552 187.776 132.467 187.405 132.297 187.082C132.126 186.755 131.887 186.498 131.578 186.31C131.272 186.121 130.914 186.027 130.502 186.027C130.054 186.027 129.664 186.137 129.33 186.358C128.999 186.574 128.744 186.858 128.563 187.21C128.385 187.558 128.296 187.936 128.296 188.344V189.277C128.296 189.824 128.392 190.289 128.584 190.672C128.779 191.056 129.051 191.349 129.399 191.551C129.747 191.75 130.154 191.849 130.619 191.849C130.921 191.849 131.196 191.807 131.444 191.722C131.693 191.633 131.908 191.501 132.089 191.327C132.27 191.153 132.409 190.939 132.504 190.683L134.012 190.955C133.891 191.398 133.675 191.787 133.362 192.121C133.053 192.451 132.664 192.709 132.195 192.893C131.73 193.075 131.199 193.165 130.603 193.165Z" fill="#615E83"/>
<rect x="2" y="204" width="469" height="16" rx="4" fill="#F8F8FF"/>
<rect x="3" y="204" width="115" height="16" rx="4" fill="#A0AEC0"/>
<path d="M490.258 243.149C489.494 243.149 488.82 243.018 488.234 242.755C487.651 242.492 487.195 242.13 486.865 241.668C486.535 241.207 486.371 240.681 486.375 240.092C486.371 239.63 486.465 239.206 486.657 238.819C486.852 238.428 487.117 238.103 487.451 237.844C487.785 237.581 488.157 237.414 488.569 237.343V237.279C488.026 237.148 487.591 236.857 487.264 236.406C486.938 235.955 486.776 235.436 486.78 234.85C486.776 234.293 486.923 233.795 487.222 233.359C487.524 232.918 487.937 232.572 488.463 232.32C488.988 232.068 489.587 231.942 490.258 231.942C490.922 231.942 491.515 232.07 492.037 232.325C492.563 232.577 492.976 232.924 493.278 233.364C493.58 233.801 493.733 234.296 493.736 234.85C493.733 235.436 493.566 235.955 493.236 236.406C492.905 236.857 492.476 237.148 491.946 237.279V237.343C492.355 237.414 492.722 237.581 493.049 237.844C493.379 238.103 493.642 238.428 493.837 238.819C494.036 239.206 494.138 239.63 494.141 240.092C494.138 240.681 493.971 241.207 493.64 241.668C493.31 242.13 492.852 242.492 492.266 242.755C491.684 243.018 491.014 243.149 490.258 243.149ZM490.258 241.801C490.709 241.801 491.1 241.727 491.43 241.578C491.76 241.425 492.016 241.214 492.197 240.944C492.378 240.67 492.47 240.351 492.474 239.985C492.47 239.605 492.371 239.27 492.176 238.978C491.984 238.687 491.723 238.458 491.392 238.291C491.062 238.124 490.684 238.041 490.258 238.041C489.828 238.041 489.446 238.124 489.113 238.291C488.779 238.458 488.516 238.687 488.324 238.978C488.133 239.27 488.038 239.605 488.042 239.985C488.038 240.351 488.125 240.67 488.303 240.944C488.484 241.214 488.742 241.425 489.075 241.578C489.409 241.727 489.803 241.801 490.258 241.801ZM490.258 236.725C490.62 236.725 490.941 236.652 491.222 236.507C491.503 236.361 491.723 236.159 491.883 235.9C492.046 235.64 492.129 235.337 492.133 234.989C492.129 234.648 492.048 234.349 491.888 234.094C491.732 233.838 491.513 233.641 491.233 233.502C490.952 233.36 490.627 233.289 490.258 233.289C489.881 233.289 489.551 233.36 489.267 233.502C488.987 233.641 488.768 233.838 488.612 234.094C488.456 234.349 488.379 234.648 488.383 234.989C488.379 235.337 488.457 235.64 488.617 235.9C488.777 236.159 488.997 236.361 489.278 236.507C489.562 236.652 489.889 236.725 490.258 236.725Z" fill="#1E1E1E"/>
<path d="M9.58132 233.537C9.47834 233.214 9.33984 232.925 9.16584 232.669C8.99538 232.41 8.79119 232.19 8.55327 232.009C8.31534 231.824 8.04368 231.684 7.73828 231.588C7.43643 231.492 7.1044 231.444 6.74219 231.444C6.12784 231.444 5.57386 231.602 5.08026 231.918C4.58665 232.234 4.19602 232.697 3.90838 233.308C3.62429 233.915 3.48224 234.659 3.48224 235.54C3.48224 236.424 3.62607 237.172 3.91371 237.783C4.20135 238.393 4.59553 238.857 5.09624 239.173C5.59695 239.489 6.1669 239.647 6.80611 239.647C7.39915 239.647 7.91584 239.526 8.35618 239.285C8.80007 239.043 9.14276 238.702 9.38423 238.262C9.62926 237.818 9.75178 237.296 9.75178 236.696L10.1779 236.776H7.05646V235.418H11.3445V236.659C11.3445 237.575 11.1491 238.37 10.7585 239.045C10.3714 239.716 9.83523 240.235 9.14986 240.6C8.46804 240.966 7.68679 241.149 6.80611 241.149C5.81889 241.149 4.95241 240.922 4.20668 240.467C3.46449 240.013 2.88565 239.368 2.47017 238.534C2.05469 237.696 1.84695 236.701 1.84695 235.551C1.84695 234.681 1.96768 233.9 2.20916 233.207C2.45064 232.515 2.78977 231.927 3.22656 231.444C3.6669 230.957 4.18359 230.586 4.77663 230.331C5.37322 230.071 6.02486 229.942 6.73153 229.942C7.32102 229.942 7.86967 230.029 8.37749 230.203C8.88885 230.377 9.34339 230.624 9.74112 230.943C10.1424 231.263 10.4744 231.643 10.7372 232.083C11 232.52 11.1776 233.005 11.2699 233.537H9.58132ZM15.6871 241.181C15.1686 241.181 14.6998 241.085 14.2808 240.893C13.8618 240.698 13.5297 240.416 13.2847 240.047C13.0432 239.677 12.9225 239.224 12.9225 238.688C12.9225 238.227 13.0113 237.847 13.1888 237.548C13.3664 237.25 13.6061 237.014 13.9079 236.84C14.2098 236.666 14.5471 236.534 14.92 236.446C15.2929 236.357 15.6729 236.289 16.0599 236.243C16.55 236.186 16.9477 236.14 17.2531 236.105C17.5585 236.066 17.7805 236.004 17.9189 235.918C18.0574 235.833 18.1267 235.695 18.1267 235.503V235.466C18.1267 235 17.9953 234.64 17.7325 234.384C17.4733 234.129 17.0862 234.001 16.5713 234.001C16.0351 234.001 15.6125 234.12 15.3035 234.358C14.9981 234.592 14.7868 234.853 14.6697 235.141L13.1729 234.8C13.3504 234.303 13.6096 233.901 13.9506 233.596C14.295 233.287 14.691 233.063 15.1384 232.925C15.5858 232.783 16.0564 232.712 16.55 232.712C16.8767 232.712 17.2229 232.751 17.5887 232.829C17.958 232.903 18.3025 233.042 18.6221 233.244C18.9452 233.447 19.2098 233.736 19.4157 234.113C19.6217 234.485 19.7247 234.97 19.7247 235.567V241H18.1693V239.881H18.1054C18.0024 240.087 17.8479 240.29 17.642 240.489C17.436 240.687 17.1714 240.853 16.8483 240.984C16.5251 241.115 16.1381 241.181 15.6871 241.181ZM16.0333 239.903C16.4736 239.903 16.8501 239.816 17.1626 239.642C17.4786 239.468 17.7183 239.24 17.8817 238.96C18.0486 238.676 18.132 238.372 18.132 238.049V236.994C18.0752 237.051 17.9651 237.104 17.8018 237.154C17.642 237.2 17.4591 237.241 17.2531 237.277C17.0471 237.309 16.8465 237.339 16.6512 237.367C16.4559 237.392 16.2925 237.413 16.1611 237.431C15.8522 237.47 15.5699 237.536 15.3142 237.628C15.0621 237.721 14.8596 237.854 14.7069 238.028C14.5578 238.198 14.4832 238.425 14.4832 238.71C14.4832 239.104 14.6288 239.402 14.92 239.604C15.2112 239.803 15.5823 239.903 16.0333 239.903ZM27.9771 234.816L26.5336 235.071C26.4732 234.887 26.3773 234.711 26.2459 234.544C26.1181 234.377 25.9441 234.24 25.7239 234.134C25.5037 234.027 25.2285 233.974 24.8983 233.974C24.4473 233.974 24.0708 234.075 23.769 234.278C23.4672 234.477 23.3162 234.734 23.3162 235.05C23.3162 235.324 23.4174 235.544 23.6199 235.711C23.8223 235.877 24.149 236.014 24.6 236.121L25.8997 236.419C26.6525 236.593 27.2136 236.861 27.5829 237.223C27.9522 237.586 28.1369 238.056 28.1369 238.635C28.1369 239.125 27.9949 239.562 27.7108 239.945C27.4302 240.325 27.0378 240.624 26.5336 240.84C26.0328 241.057 25.4522 241.165 24.7917 241.165C23.8755 241.165 23.128 240.97 22.5492 240.579C21.9703 240.185 21.6152 239.626 21.4838 238.901L23.0233 238.667C23.1191 239.068 23.3162 239.372 23.6145 239.578C23.9128 239.78 24.3017 239.881 24.7811 239.881C25.3031 239.881 25.7203 239.773 26.0328 239.556C26.3453 239.336 26.5016 239.068 26.5016 238.752C26.5016 238.496 26.4057 238.282 26.214 238.108C26.0257 237.934 25.7363 237.802 25.3457 237.713L23.9608 237.41C23.1973 237.236 22.6326 236.959 22.2669 236.579C21.9047 236.199 21.7235 235.718 21.7235 235.135C21.7235 234.652 21.8585 234.23 22.1284 233.868C22.3983 233.505 22.7711 233.223 23.247 233.021C23.7228 232.815 24.2679 232.712 24.8823 232.712C25.7665 232.712 26.4625 232.903 26.9703 233.287C27.4782 233.667 27.8137 234.176 27.9771 234.816ZM33.4143 241.165C32.6082 241.165 31.914 240.993 31.3316 240.648C30.7528 240.3 30.3053 239.812 29.9893 239.184C29.6768 238.551 29.5205 237.811 29.5205 236.962C29.5205 236.124 29.6768 235.386 29.9893 234.746C30.3053 234.107 30.7456 233.608 31.3103 233.25C31.8785 232.891 32.5425 232.712 33.3025 232.712C33.7641 232.712 34.2116 232.788 34.6448 232.941C35.078 233.093 35.4669 233.333 35.8113 233.66C36.1558 233.987 36.4275 234.411 36.6263 234.933C36.8252 235.451 36.9246 236.082 36.9246 236.824V237.388H30.4207V236.195H35.3639C35.3639 235.776 35.2787 235.405 35.1082 235.082C34.9378 234.755 34.6981 234.498 34.3891 234.31C34.0837 234.121 33.7251 234.027 33.3131 234.027C32.8657 234.027 32.4751 234.137 32.1412 234.358C31.811 234.574 31.5553 234.858 31.3742 235.21C31.1966 235.558 31.1079 235.936 31.1079 236.344V237.277C31.1079 237.824 31.2037 238.289 31.3955 238.672C31.5908 239.056 31.8625 239.349 32.2105 239.551C32.5585 239.75 32.9651 239.849 33.4303 239.849C33.7322 239.849 34.0074 239.807 34.2559 239.722C34.5045 239.633 34.7194 239.501 34.9005 239.327C35.0816 239.153 35.2201 238.939 35.316 238.683L36.8234 238.955C36.7027 239.398 36.4861 239.787 36.1736 240.121C35.8646 240.451 35.4758 240.709 35.007 240.893C34.5418 241.075 34.0109 241.165 33.4143 241.165ZM42.1381 241.165C41.3711 241.165 40.7017 240.989 40.13 240.638C39.5582 240.286 39.1143 239.794 38.7983 239.162C38.4822 238.53 38.3242 237.792 38.3242 236.946C38.3242 236.098 38.4822 235.355 38.7983 234.72C39.1143 234.084 39.5582 233.591 40.13 233.239C40.7017 232.887 41.3711 232.712 42.1381 232.712C42.9052 232.712 43.5746 232.887 44.1463 233.239C44.718 233.591 45.1619 234.084 45.478 234.72C45.794 235.355 45.9521 236.098 45.9521 236.946C45.9521 237.792 45.794 238.53 45.478 239.162C45.1619 239.794 44.718 240.286 44.1463 240.638C43.5746 240.989 42.9052 241.165 42.1381 241.165ZM42.1435 239.828C42.6406 239.828 43.0526 239.697 43.3793 239.434C43.706 239.171 43.9474 238.821 44.1037 238.385C44.2635 237.948 44.3434 237.467 44.3434 236.941C44.3434 236.419 44.2635 235.94 44.1037 235.503C43.9474 235.062 43.706 234.709 43.3793 234.443C43.0526 234.176 42.6406 234.043 42.1435 234.043C41.6428 234.043 41.2273 234.176 40.897 234.443C40.5703 234.709 40.3271 235.062 40.1673 235.503C40.011 235.94 39.9329 236.419 39.9329 236.941C39.9329 237.467 40.011 237.948 40.1673 238.385C40.3271 238.821 40.5703 239.171 40.897 239.434C41.2273 239.697 41.6428 239.828 42.1435 239.828ZM53.8609 234.816L52.4173 235.071C52.357 234.887 52.2611 234.711 52.1297 234.544C52.0019 234.377 51.8279 234.24 51.6077 234.134C51.3875 234.027 51.1123 233.974 50.782 233.974C50.3311 233.974 49.9546 234.075 49.6528 234.278C49.3509 234.477 49.2 234.734 49.2 235.05C49.2 235.324 49.3012 235.544 49.5036 235.711C49.7061 235.877 50.0328 236.014 50.4838 236.121L51.7835 236.419C52.5363 236.593 53.0974 236.861 53.4667 237.223C53.836 237.586 54.0207 238.056 54.0207 238.635C54.0207 239.125 53.8786 239.562 53.5945 239.945C53.314 240.325 52.9216 240.624 52.4173 240.84C51.9166 241.057 51.336 241.165 50.6755 241.165C49.7593 241.165 49.0118 240.97 48.433 240.579C47.8541 240.185 47.499 239.626 47.3676 238.901L48.907 238.667C49.0029 239.068 49.2 239.372 49.4983 239.578C49.7966 239.78 50.1855 239.881 50.6649 239.881C51.1869 239.881 51.6041 239.773 51.9166 239.556C52.2291 239.336 52.3854 239.068 52.3854 238.752C52.3854 238.496 52.2895 238.282 52.0977 238.108C51.9095 237.934 51.6201 237.802 51.2295 237.713L49.8445 237.41C49.0811 237.236 48.5164 236.959 48.1507 236.579C47.7884 236.199 47.6073 235.718 47.6073 235.135C47.6073 234.652 47.7423 234.23 48.0122 233.868C48.282 233.505 48.6549 233.223 49.1308 233.021C49.6066 232.815 50.1517 232.712 50.7661 232.712C51.6503 232.712 52.3463 232.903 52.8541 233.287C53.3619 233.667 53.6975 234.176 53.8609 234.816ZM58.1529 241.181C57.6344 241.181 57.1657 241.085 56.7466 240.893C56.3276 240.698 55.9956 240.416 55.7505 240.047C55.5091 239.677 55.3883 239.224 55.3883 238.688C55.3883 238.227 55.4771 237.847 55.6547 237.548C55.8322 237.25 56.0719 237.014 56.3738 236.84C56.6756 236.666 57.013 236.534 57.3858 236.446C57.7587 236.357 58.1387 236.289 58.5257 236.243C59.0158 236.186 59.4135 236.14 59.7189 236.105C60.0243 236.066 60.2463 236.004 60.3848 235.918C60.5233 235.833 60.5925 235.695 60.5925 235.503V235.466C60.5925 235 60.4611 234.64 60.1983 234.384C59.9391 234.129 59.552 234.001 59.0371 234.001C58.5009 234.001 58.0783 234.12 57.7694 234.358C57.464 234.592 57.2527 234.853 57.1355 235.141L55.6387 234.8C55.8162 234.303 56.0755 233.901 56.4164 233.596C56.7608 233.287 57.1568 233.063 57.6042 232.925C58.0517 232.783 58.5222 232.712 59.0158 232.712C59.3425 232.712 59.6887 232.751 60.0545 232.829C60.4238 232.903 60.7683 233.042 61.0879 233.244C61.411 233.447 61.6756 233.736 61.8816 234.113C62.0875 234.485 62.1905 234.97 62.1905 235.567V241H60.6351V239.881H60.5712C60.4682 240.087 60.3137 240.29 60.1078 240.489C59.9018 240.687 59.6373 240.853 59.3141 240.984C58.9909 241.115 58.6039 241.181 58.1529 241.181ZM58.4991 239.903C58.9395 239.903 59.3159 239.816 59.6284 239.642C59.9444 239.468 60.1841 239.24 60.3475 238.96C60.5144 238.676 60.5978 238.372 60.5978 238.049V236.994C60.541 237.051 60.4309 237.104 60.2676 237.154C60.1078 237.2 59.9249 237.241 59.7189 237.277C59.513 237.309 59.3123 237.339 59.117 237.367C58.9217 237.392 58.7583 237.413 58.627 237.431C58.318 237.47 58.0357 237.536 57.78 237.628C57.5279 237.721 57.3255 237.854 57.1728 238.028C57.0236 238.198 56.949 238.425 56.949 238.71C56.949 239.104 57.0946 239.402 57.3858 239.604C57.677 239.803 58.0481 239.903 58.4991 239.903Z" fill="#615E83"/>
<rect x="3" y="252" width="469" height="16" rx="4" fill="#F8F8FF"/>
<rect x="4" y="252" width="51" height="16" rx="4" fill="#A0AEC0"/>
<defs>
<linearGradient id="paint0_linear_0_1" x1="0.999997" y1="30.8881" x2="423.55" y2="30.8881" gradientUnits="userSpaceOnUse">
<stop stop-color="#1E1E1E"/>
<stop offset="1" stop-color="#1E1E1E" stop-opacity="0.49"/>
</linearGradient>
</defs>
</svg>