<svg width="479" height="242" viewBox="0 0 479 242" fill="none" xmlns="http://www.w3.org/2000/svg">
<path d="M462.295 233.526V238.224H463.682C464.391 238.224 464.886 237.874 465.166 237.174C465.319 236.79 465.396 236.332 465.396 235.802C465.396 235.069 465.28 234.508 465.049 234.117C464.821 233.723 464.365 233.526 463.682 233.526H462.295ZM463.936 232.276C464.382 232.283 464.753 232.335 465.049 232.433C465.553 232.599 465.962 232.903 466.274 233.346C466.525 233.704 466.696 234.091 466.787 234.508C466.878 234.924 466.924 235.322 466.924 235.699C466.924 236.656 466.732 237.467 466.348 238.131C465.827 239.026 465.023 239.474 463.936 239.474H460.835V232.276H463.936ZM470.049 235.157C469.727 235.157 469.476 235.258 469.297 235.46C469.121 235.662 469.01 235.935 468.965 236.28H471.128C471.105 235.912 470.993 235.634 470.791 235.445C470.592 235.253 470.345 235.157 470.049 235.157ZM470.049 234.01C470.492 234.01 470.89 234.093 471.245 234.259C471.6 234.425 471.893 234.687 472.124 235.045C472.332 235.361 472.467 235.727 472.529 236.144C472.565 236.388 472.58 236.739 472.573 237.198H468.931C468.95 237.732 469.118 238.106 469.434 238.321C469.626 238.455 469.857 238.521 470.127 238.521C470.413 238.521 470.646 238.44 470.825 238.277C470.923 238.189 471.009 238.067 471.084 237.911H472.505C472.469 238.227 472.305 238.548 472.012 238.873C471.556 239.391 470.918 239.649 470.098 239.649C469.421 239.649 468.823 239.431 468.306 238.995C467.788 238.559 467.529 237.849 467.529 236.866C467.529 235.945 467.762 235.239 468.228 234.747C468.696 234.256 469.303 234.01 470.049 234.01ZM476.694 236.061C476.668 235.862 476.602 235.683 476.494 235.523C476.338 235.309 476.095 235.201 475.767 235.201C475.298 235.201 474.977 235.434 474.805 235.899C474.714 236.147 474.668 236.476 474.668 236.886C474.668 237.276 474.714 237.59 474.805 237.828C474.971 238.271 475.283 238.492 475.742 238.492C476.068 238.492 476.299 238.404 476.436 238.229C476.572 238.053 476.655 237.825 476.685 237.545H478.105C478.073 237.968 477.92 238.368 477.646 238.746C477.21 239.355 476.564 239.659 475.708 239.659C474.852 239.659 474.222 239.405 473.818 238.897C473.415 238.39 473.213 237.73 473.213 236.92C473.213 236.005 473.436 235.294 473.882 234.786C474.328 234.278 474.943 234.024 475.728 234.024C476.395 234.024 476.94 234.174 477.363 234.474C477.79 234.773 478.042 235.302 478.12 236.061H476.694Z" fill="#CBD5E0"/>
<path d="M420.425 232.276H422.002L424.869 237.301V232.276H426.27V239.474H424.766L421.827 234.361V239.474H420.425V232.276ZM429.952 238.492C430.359 238.492 430.671 238.347 430.889 238.058C431.107 237.768 431.216 237.356 431.216 236.822C431.216 236.288 431.107 235.878 430.889 235.592C430.671 235.302 430.359 235.157 429.952 235.157C429.545 235.157 429.231 235.302 429.009 235.592C428.791 235.878 428.682 236.288 428.682 236.822C428.682 237.356 428.791 237.768 429.009 238.058C429.231 238.347 429.545 238.492 429.952 238.492ZM432.676 236.822C432.676 237.604 432.452 238.272 432.002 238.829C431.553 239.382 430.871 239.659 429.957 239.659C429.042 239.659 428.36 239.382 427.911 238.829C427.461 238.272 427.237 237.604 427.237 236.822C427.237 236.054 427.461 235.388 427.911 234.825C428.36 234.262 429.042 233.98 429.957 233.98C430.871 233.98 431.553 234.262 432.002 234.825C432.452 235.388 432.676 236.054 432.676 236.822ZM436.958 234.151H438.453L436.534 239.474H435.064L433.155 234.151H434.717L435.826 238.077L436.958 234.151Z" fill="#CBD5E0"/>
<path d="M384.311 238.399C384.907 238.399 385.379 238.18 385.727 237.74C386.079 237.301 386.254 236.676 386.254 235.865C386.254 235.058 386.079 234.435 385.727 233.995C385.379 233.552 384.907 233.331 384.311 233.331C383.715 233.331 383.24 233.551 382.885 233.99C382.53 234.43 382.353 235.055 382.353 235.865C382.353 236.676 382.53 237.301 382.885 237.74C383.24 238.18 383.715 238.399 384.311 238.399ZM387.758 235.865C387.758 237.158 387.395 238.147 386.669 238.834C386.126 239.394 385.34 239.674 384.311 239.674C383.282 239.674 382.496 239.394 381.953 238.834C381.223 238.147 380.859 237.158 380.859 235.865C380.859 234.547 381.223 233.557 381.953 232.896C382.496 232.337 383.282 232.057 384.311 232.057C385.34 232.057 386.126 232.337 386.669 232.896C387.395 233.557 387.758 234.547 387.758 235.865ZM391.977 236.061C391.951 235.862 391.884 235.683 391.777 235.523C391.621 235.309 391.378 235.201 391.049 235.201C390.581 235.201 390.26 235.434 390.087 235.899C389.996 236.147 389.951 236.476 389.951 236.886C389.951 237.276 389.996 237.59 390.087 237.828C390.253 238.271 390.566 238.492 391.025 238.492C391.35 238.492 391.582 238.404 391.718 238.229C391.855 238.053 391.938 237.825 391.967 237.545H393.388C393.356 237.968 393.203 238.368 392.929 238.746C392.493 239.355 391.847 239.659 390.991 239.659C390.135 239.659 389.505 239.405 389.101 238.897C388.697 238.39 388.496 237.73 388.496 236.92C388.496 236.005 388.719 235.294 389.165 234.786C389.611 234.278 390.226 234.024 391.01 234.024C391.678 234.024 392.223 234.174 392.646 234.474C393.072 234.773 393.325 235.302 393.403 236.061H391.977ZM393.818 235.191V234.2H394.56V232.716H395.937V234.2H396.801V235.191H395.937V238.004C395.937 238.222 395.965 238.359 396.02 238.414C396.075 238.466 396.245 238.492 396.528 238.492C396.57 238.492 396.614 238.492 396.66 238.492C396.708 238.489 396.756 238.486 396.801 238.482V239.522L396.142 239.547C395.485 239.57 395.035 239.456 394.794 239.205C394.638 239.046 394.56 238.8 394.56 238.468V235.191H393.818Z" fill="#CBD5E0"/>
<path d="M342.097 237.252C342.142 237.581 342.232 237.826 342.365 237.989C342.609 238.285 343.028 238.434 343.62 238.434C343.975 238.434 344.263 238.395 344.484 238.316C344.904 238.167 345.114 237.888 345.114 237.481C345.114 237.244 345.01 237.06 344.802 236.93C344.593 236.803 344.266 236.69 343.82 236.593L343.059 236.422C342.31 236.253 341.792 236.069 341.506 235.87C341.021 235.538 340.778 235.019 340.778 234.312C340.778 233.668 341.013 233.132 341.481 232.706C341.95 232.28 342.639 232.066 343.547 232.066C344.305 232.066 344.951 232.268 345.485 232.672C346.022 233.072 346.304 233.655 346.33 234.42H344.885C344.859 233.987 344.67 233.679 344.318 233.497C344.084 233.377 343.793 233.316 343.444 233.316C343.057 233.316 342.748 233.395 342.517 233.551C342.285 233.707 342.17 233.925 342.17 234.205C342.17 234.462 342.284 234.654 342.512 234.781C342.658 234.866 342.971 234.965 343.449 235.079L344.689 235.377C345.233 235.507 345.643 235.681 345.92 235.899C346.35 236.238 346.564 236.728 346.564 237.369C346.564 238.027 346.312 238.574 345.808 239.01C345.306 239.443 344.597 239.659 343.679 239.659C342.741 239.659 342.004 239.446 341.467 239.02C340.93 238.59 340.661 238.001 340.661 237.252H342.097ZM349.665 235.157C349.343 235.157 349.092 235.258 348.913 235.46C348.737 235.662 348.627 235.935 348.581 236.28H350.744C350.721 235.912 350.609 235.634 350.407 235.445C350.209 235.253 349.961 235.157 349.665 235.157ZM349.665 234.01C350.108 234.01 350.507 234.093 350.861 234.259C351.216 234.425 351.509 234.687 351.74 235.045C351.949 235.361 352.084 235.727 352.146 236.144C352.181 236.388 352.196 236.739 352.189 237.198H348.547C348.566 237.732 348.734 238.106 349.05 238.321C349.242 238.455 349.473 238.521 349.743 238.521C350.03 238.521 350.262 238.44 350.441 238.277C350.539 238.189 350.625 238.067 350.7 237.911H352.121C352.085 238.227 351.921 238.548 351.628 238.873C351.172 239.391 350.534 239.649 349.714 239.649C349.037 239.649 348.439 239.431 347.922 238.995C347.404 238.559 347.146 237.849 347.146 236.866C347.146 235.945 347.378 235.239 347.844 234.747C348.312 234.256 348.92 234.01 349.665 234.01ZM356.799 236.812C356.799 236.402 356.704 236.039 356.516 235.724C356.33 235.408 356.027 235.25 355.607 235.25C355.103 235.25 354.756 235.489 354.567 235.968C354.47 236.222 354.421 236.544 354.421 236.935C354.421 237.553 354.585 237.988 354.914 238.238C355.109 238.385 355.34 238.458 355.607 238.458C355.995 238.458 356.289 238.308 356.491 238.009C356.696 237.709 356.799 237.311 356.799 236.812ZM356.008 234.034C356.63 234.034 357.155 234.264 357.585 234.723C358.018 235.182 358.234 235.855 358.234 236.744C358.234 237.682 358.023 238.396 357.6 238.888C357.18 239.379 356.638 239.625 355.974 239.625C355.55 239.625 355.199 239.519 354.919 239.308C354.766 239.19 354.616 239.02 354.47 238.795V241.568H353.093V234.151H354.426V234.938C354.576 234.706 354.735 234.524 354.904 234.391C355.214 234.153 355.581 234.034 356.008 234.034Z" fill="#CBD5E0"/>
<path d="M302.325 236.754H304.151L303.252 233.922L302.325 236.754ZM302.417 232.276H304.117L306.666 239.474H305.035L304.571 237.994H301.919L301.421 239.474H299.849L302.417 232.276ZM308.858 234.151V237.359C308.858 237.662 308.894 237.89 308.965 238.043C309.092 238.313 309.341 238.448 309.712 238.448C310.188 238.448 310.513 238.256 310.689 237.872C310.78 237.664 310.826 237.389 310.826 237.047V234.151H312.237V239.474H310.884V238.722C310.871 238.738 310.839 238.787 310.787 238.868C310.735 238.95 310.673 239.021 310.601 239.083C310.383 239.278 310.171 239.412 309.966 239.483C309.764 239.555 309.527 239.591 309.253 239.591C308.466 239.591 307.935 239.308 307.662 238.741C307.509 238.429 307.432 237.968 307.432 237.359V234.151H308.858ZM315.87 238.331C316.195 238.331 316.47 238.209 316.695 237.965C316.919 237.717 317.032 237.325 317.032 236.788C317.032 236.284 316.924 235.899 316.709 235.636C316.498 235.372 316.213 235.24 315.855 235.24C315.367 235.24 315.03 235.47 314.844 235.929C314.747 236.173 314.698 236.474 314.698 236.832C314.698 237.141 314.75 237.416 314.854 237.657C315.043 238.106 315.381 238.331 315.87 238.331ZM315.523 234.024C315.79 234.024 316.023 234.065 316.221 234.146C316.56 234.286 316.833 234.544 317.042 234.918V234.151H318.394V239.2C318.394 239.887 318.278 240.405 318.047 240.753C317.65 241.352 316.889 241.651 315.762 241.651C315.082 241.651 314.527 241.518 314.097 241.251C313.667 240.984 313.43 240.585 313.384 240.055H314.898C314.937 240.217 315 240.335 315.088 240.406C315.238 240.533 315.49 240.597 315.845 240.597C316.347 240.597 316.682 240.429 316.851 240.094C316.962 239.879 317.017 239.518 317.017 239.01V238.668C316.884 238.896 316.74 239.067 316.587 239.181C316.311 239.392 315.951 239.498 315.508 239.498C314.825 239.498 314.278 239.259 313.868 238.78C313.461 238.299 313.257 237.647 313.257 236.827C313.257 236.036 313.454 235.372 313.848 234.835C314.242 234.295 314.8 234.024 315.523 234.024Z" fill="#CBD5E0"/>
<path d="M263.242 236.744V236.91C263.255 237.467 263.315 237.859 263.422 238.087C263.533 238.312 263.767 238.424 264.125 238.424C264.48 238.424 264.715 238.3 264.829 238.053C264.897 237.906 264.931 237.659 264.931 237.311V232.276H266.435V237.286C266.435 237.898 266.329 238.383 266.118 238.741C265.76 239.347 265.113 239.649 264.179 239.649C263.245 239.649 262.618 239.405 262.299 238.917C261.98 238.425 261.821 237.757 261.821 236.91V236.744H263.242ZM269.204 234.151V237.359C269.204 237.662 269.239 237.89 269.311 238.043C269.438 238.313 269.687 238.448 270.058 238.448C270.533 238.448 270.859 238.256 271.035 237.872C271.126 237.664 271.171 237.389 271.171 237.047V234.151H272.583V239.474H271.23V238.722C271.217 238.738 271.184 238.787 271.132 238.868C271.08 238.95 271.018 239.021 270.947 239.083C270.729 239.278 270.517 239.412 270.312 239.483C270.11 239.555 269.873 239.591 269.599 239.591C268.811 239.591 268.281 239.308 268.007 238.741C267.854 238.429 267.778 237.968 267.778 237.359V234.151H269.204ZM275.351 239.474H273.959V232.276H275.351V239.474Z" fill="#CBD5E0"/>
<path d="M223.388 236.744V236.91C223.401 237.467 223.461 237.859 223.568 238.087C223.679 238.312 223.913 238.424 224.271 238.424C224.626 238.424 224.861 238.3 224.975 238.053C225.043 237.906 225.077 237.659 225.077 237.311V232.276H226.581V237.286C226.581 237.898 226.475 238.383 226.264 238.741C225.906 239.347 225.259 239.649 224.325 239.649C223.391 239.649 222.764 239.405 222.445 238.917C222.126 238.425 221.967 237.757 221.967 236.91V236.744H223.388ZM229.35 234.151V237.359C229.35 237.662 229.385 237.89 229.457 238.043C229.584 238.313 229.833 238.448 230.204 238.448C230.679 238.448 231.005 238.256 231.181 237.872C231.272 237.664 231.317 237.389 231.317 237.047V234.151H232.729V239.474H231.376V238.722C231.363 238.738 231.33 238.787 231.278 238.868C231.226 238.95 231.164 239.021 231.093 239.083C230.875 239.278 230.663 239.412 230.458 239.483C230.256 239.555 230.019 239.591 229.745 239.591C228.957 239.591 228.427 239.308 228.153 238.741C228 238.429 227.924 237.968 227.924 237.359V234.151H229.35ZM237.025 234.024C237.576 234.024 238.025 234.169 238.373 234.459C238.725 234.745 238.9 235.222 238.9 235.89V239.474H237.475V236.236C237.475 235.956 237.437 235.742 237.362 235.592C237.226 235.318 236.965 235.182 236.581 235.182C236.109 235.182 235.785 235.382 235.609 235.782C235.518 235.994 235.473 236.264 235.473 236.593V239.474H234.086V234.161H235.429V234.938C235.608 234.664 235.777 234.467 235.937 234.347C236.223 234.132 236.586 234.024 237.025 234.024Z" fill="#CBD5E0"/>
<path d="M186.628 232.276H188.791V239.474H187.39V234.605C187.39 234.465 187.391 234.27 187.395 234.02C187.398 233.766 187.399 233.57 187.399 233.434L186.037 239.474H184.577L183.225 233.434C183.225 233.57 183.226 233.766 183.229 234.02C183.233 234.27 183.234 234.465 183.234 234.605V239.474H181.833V232.276H184.021L185.329 237.936L186.628 232.276ZM193.01 236.886C192.922 236.941 192.832 236.987 192.741 237.022C192.653 237.055 192.531 237.086 192.375 237.115L192.062 237.174C191.77 237.226 191.56 237.289 191.433 237.364C191.218 237.491 191.11 237.688 191.11 237.955C191.11 238.193 191.175 238.365 191.306 238.473C191.439 238.577 191.6 238.629 191.789 238.629C192.089 238.629 192.364 238.541 192.614 238.365C192.868 238.189 193 237.869 193.01 237.403V236.886ZM192.165 236.236C192.422 236.204 192.606 236.163 192.717 236.114C192.915 236.03 193.015 235.898 193.015 235.719C193.015 235.501 192.938 235.351 192.785 235.27C192.635 235.185 192.414 235.143 192.121 235.143C191.792 235.143 191.56 235.224 191.423 235.387C191.325 235.507 191.26 235.67 191.228 235.875H189.885C189.914 235.41 190.044 235.027 190.275 234.728C190.643 234.259 191.275 234.024 192.17 234.024C192.753 234.024 193.27 234.14 193.723 234.371C194.175 234.602 194.401 235.038 194.401 235.68V238.121C194.401 238.29 194.405 238.495 194.411 238.736C194.421 238.919 194.449 239.042 194.494 239.107C194.54 239.173 194.608 239.226 194.699 239.269V239.474H193.186C193.143 239.366 193.114 239.265 193.098 239.171C193.081 239.076 193.068 238.969 193.059 238.849C192.867 239.057 192.645 239.234 192.395 239.381C192.095 239.553 191.757 239.64 191.379 239.64C190.897 239.64 190.498 239.503 190.183 239.229C189.87 238.953 189.714 238.562 189.714 238.058C189.714 237.403 189.966 236.93 190.471 236.637C190.747 236.477 191.154 236.363 191.691 236.295L192.165 236.236ZM195.856 240.494L196.032 240.504C196.169 240.51 196.299 240.506 196.423 240.489C196.547 240.473 196.651 240.436 196.735 240.377C196.817 240.322 196.892 240.206 196.96 240.03C197.032 239.854 197.061 239.747 197.048 239.708L195.095 234.151H196.643L197.805 238.077L198.903 234.151H200.383L198.557 239.386C198.205 240.395 197.927 241.02 197.722 241.261C197.517 241.505 197.106 241.627 196.491 241.627C196.368 241.627 196.268 241.625 196.193 241.622C196.118 241.622 196.006 241.617 195.856 241.607V240.494Z" fill="#CBD5E0"/>
<path d="M144.237 236.754H146.063L145.165 233.922L144.237 236.754ZM144.33 232.276H146.029L148.578 239.474H146.947L146.483 237.994H143.832L143.334 239.474H141.762L144.33 232.276ZM153.051 236.812C153.051 236.402 152.956 236.039 152.768 235.724C152.582 235.408 152.279 235.25 151.859 235.25C151.355 235.25 151.008 235.489 150.819 235.968C150.722 236.222 150.673 236.544 150.673 236.935C150.673 237.553 150.837 237.988 151.166 238.238C151.361 238.385 151.592 238.458 151.859 238.458C152.247 238.458 152.541 238.308 152.743 238.009C152.948 237.709 153.051 237.311 153.051 236.812ZM152.26 234.034C152.882 234.034 153.407 234.264 153.837 234.723C154.27 235.182 154.486 235.855 154.486 236.744C154.486 237.682 154.275 238.396 153.852 238.888C153.432 239.379 152.89 239.625 152.226 239.625C151.802 239.625 151.451 239.519 151.171 239.308C151.018 239.19 150.868 239.02 150.722 238.795V241.568H149.345V234.151H150.678V234.938C150.827 234.706 150.987 234.524 151.156 234.391C151.465 234.153 151.833 234.034 152.26 234.034ZM158.388 234.024C158.414 234.024 158.435 234.026 158.451 234.029C158.471 234.029 158.511 234.031 158.573 234.034V235.46C158.485 235.45 158.407 235.444 158.339 235.44C158.271 235.437 158.215 235.436 158.173 235.436C157.613 235.436 157.237 235.618 157.045 235.982C156.938 236.188 156.884 236.503 156.884 236.93V239.474H155.482V234.151H156.811V235.079C157.025 234.724 157.213 234.482 157.372 234.352C157.632 234.133 157.971 234.024 158.388 234.024Z" fill="#CBD5E0"/>
<path d="M107.187 232.276H109.35V239.474H107.948V234.605C107.948 234.465 107.95 234.27 107.953 234.02C107.956 233.766 107.958 233.57 107.958 233.434L106.596 239.474H105.136L103.783 233.434C103.783 233.57 103.785 233.766 103.788 234.02C103.791 234.27 103.793 234.465 103.793 234.605V239.474H102.392V232.276H104.579L105.888 237.936L107.187 232.276ZM113.568 236.886C113.48 236.941 113.391 236.987 113.3 237.022C113.212 237.055 113.09 237.086 112.934 237.115L112.621 237.174C112.328 237.226 112.118 237.289 111.991 237.364C111.776 237.491 111.669 237.688 111.669 237.955C111.669 238.193 111.734 238.365 111.864 238.473C111.998 238.577 112.159 238.629 112.348 238.629C112.647 238.629 112.922 238.541 113.173 238.365C113.427 238.189 113.559 237.869 113.568 237.403V236.886ZM112.724 236.236C112.981 236.204 113.165 236.163 113.275 236.114C113.474 236.03 113.573 235.898 113.573 235.719C113.573 235.501 113.497 235.351 113.344 235.27C113.194 235.185 112.973 235.143 112.68 235.143C112.351 235.143 112.118 235.224 111.981 235.387C111.884 235.507 111.819 235.67 111.786 235.875H110.443C110.473 235.41 110.603 235.027 110.834 234.728C111.202 234.259 111.833 234.024 112.729 234.024C113.311 234.024 113.829 234.14 114.281 234.371C114.734 234.602 114.96 235.038 114.96 235.68V238.121C114.96 238.29 114.963 238.495 114.97 238.736C114.979 238.919 115.007 239.042 115.053 239.107C115.098 239.173 115.167 239.226 115.258 239.269V239.474H113.744C113.702 239.366 113.673 239.265 113.656 239.171C113.64 239.076 113.627 238.969 113.617 238.849C113.425 239.057 113.204 239.234 112.953 239.381C112.654 239.553 112.315 239.64 111.938 239.64C111.456 239.64 111.057 239.503 110.741 239.229C110.429 238.953 110.272 238.562 110.272 238.058C110.272 237.403 110.525 236.93 111.029 236.637C111.306 236.477 111.713 236.363 112.25 236.295L112.724 236.236ZM119.091 234.024C119.117 234.024 119.138 234.026 119.154 234.029C119.174 234.029 119.215 234.031 119.276 234.034V235.46C119.188 235.45 119.11 235.444 119.042 235.44C118.974 235.437 118.918 235.436 118.876 235.436C118.316 235.436 117.94 235.618 117.748 235.982C117.641 236.188 117.587 236.503 117.587 236.93V239.474H116.186V234.151H117.514V235.079C117.729 234.724 117.916 234.482 118.075 234.352C118.336 234.133 118.674 234.024 119.091 234.024Z" fill="#CBD5E0"/>
<path d="M62.5615 232.286H67.6641V233.551H64.0557V235.206H67.2148V236.456H64.0557V239.474H62.5615V232.286ZM70.6621 235.157C70.3398 235.157 70.0892 235.258 69.9102 235.46C69.7344 235.662 69.6237 235.935 69.5781 236.28H71.7412C71.7184 235.912 71.6061 235.634 71.4043 235.445C71.2057 235.253 70.9583 235.157 70.6621 235.157ZM70.6621 234.01C71.1048 234.01 71.5036 234.093 71.8584 234.259C72.2132 234.425 72.5062 234.687 72.7373 235.045C72.9456 235.361 73.0807 235.727 73.1426 236.144C73.1784 236.388 73.193 236.739 73.1865 237.198H69.5439C69.5635 237.732 69.7311 238.106 70.0469 238.321C70.2389 238.455 70.4701 238.521 70.7402 238.521C71.0267 238.521 71.2594 238.44 71.4385 238.277C71.5361 238.189 71.6224 238.067 71.6973 237.911H73.1182C73.0824 238.227 72.918 238.548 72.625 238.873C72.1693 239.391 71.5312 239.649 70.7109 239.649C70.0339 239.649 69.4365 239.431 68.9189 238.995C68.4014 238.559 68.1426 237.849 68.1426 236.866C68.1426 235.945 68.3753 235.239 68.8408 234.747C69.3096 234.256 69.9167 234.01 70.6621 234.01ZM77.0049 234.034C77.7048 234.034 78.2516 234.286 78.6455 234.791C79.0426 235.296 79.2412 235.947 79.2412 236.744C79.2412 237.571 79.0459 238.256 78.6553 238.8C78.2646 239.343 77.7194 239.615 77.0195 239.615C76.5801 239.615 76.2269 239.527 75.96 239.352C75.8005 239.247 75.6279 239.065 75.4424 238.805V239.474H74.0801V232.286H75.4668V234.845C75.6426 234.597 75.8363 234.409 76.0479 234.278C76.2985 234.116 76.6175 234.034 77.0049 234.034ZM76.6484 238.468C77.0065 238.468 77.2848 238.323 77.4834 238.033C77.682 237.743 77.7812 237.363 77.7812 236.891C77.7812 236.513 77.7324 236.201 77.6348 235.953C77.4492 235.484 77.1074 235.25 76.6094 235.25C76.1048 235.25 75.7581 235.479 75.5693 235.938C75.4717 236.183 75.4229 236.498 75.4229 236.886C75.4229 237.341 75.5238 237.719 75.7256 238.019C75.9274 238.318 76.235 238.468 76.6484 238.468Z" fill="#CBD5E0"/>
<path d="M23.8525 236.744V236.91C23.8656 237.467 23.9258 237.859 24.0332 238.087C24.1439 238.312 24.3783 238.424 24.7363 238.424C25.0911 238.424 25.3255 238.3 25.4395 238.053C25.5078 237.906 25.542 237.659 25.542 237.311V232.276H27.0459V237.286C27.0459 237.898 26.9401 238.383 26.7285 238.741C26.3704 239.347 25.7243 239.649 24.79 239.649C23.8558 239.649 23.2292 239.405 22.9102 238.917C22.5911 238.425 22.4316 237.757 22.4316 236.91V236.744H23.8525ZM31.3623 236.886C31.2744 236.941 31.1849 236.987 31.0938 237.022C31.0059 237.055 30.8838 237.086 30.7275 237.115L30.415 237.174C30.1221 237.226 29.9121 237.289 29.7852 237.364C29.5703 237.491 29.4629 237.688 29.4629 237.955C29.4629 238.193 29.528 238.365 29.6582 238.473C29.7917 238.577 29.9528 238.629 30.1416 238.629C30.4411 238.629 30.7161 238.541 30.9668 238.365C31.2207 238.189 31.3525 237.869 31.3623 237.403V236.886ZM30.5176 236.236C30.7747 236.204 30.9587 236.163 31.0693 236.114C31.2679 236.03 31.3672 235.898 31.3672 235.719C31.3672 235.501 31.2907 235.351 31.1377 235.27C30.988 235.185 30.7666 235.143 30.4736 235.143C30.1449 235.143 29.9121 235.224 29.7754 235.387C29.6777 235.507 29.6126 235.67 29.5801 235.875H28.2373C28.2666 235.41 28.3968 235.027 28.6279 234.728C28.9958 234.259 29.6273 234.024 30.5225 234.024C31.1051 234.024 31.6227 234.14 32.0752 234.371C32.5277 234.602 32.7539 235.038 32.7539 235.68V238.121C32.7539 238.29 32.7572 238.495 32.7637 238.736C32.7734 238.919 32.8011 239.042 32.8467 239.107C32.8923 239.173 32.9606 239.226 33.0518 239.269V239.474H31.5381C31.4958 239.366 31.4665 239.265 31.4502 239.171C31.4339 239.076 31.4209 238.969 31.4111 238.849C31.2191 239.057 30.9977 239.234 30.7471 239.381C30.4476 239.553 30.109 239.64 29.7314 239.64C29.2497 239.64 28.8509 239.503 28.5352 239.229C28.2227 238.953 28.0664 238.562 28.0664 238.058C28.0664 237.403 28.3187 236.93 28.8232 236.637C29.0999 236.477 29.5068 236.363 30.0439 236.295L30.5176 236.236ZM36.9434 234.024C37.4935 234.024 37.9427 234.169 38.291 234.459C38.6426 234.745 38.8184 235.222 38.8184 235.89V239.474H37.3926V236.236C37.3926 235.956 37.3551 235.742 37.2803 235.592C37.1436 235.318 36.8831 235.182 36.499 235.182C36.027 235.182 35.7031 235.382 35.5273 235.782C35.4362 235.994 35.3906 236.264 35.3906 236.593V239.474H34.0039V234.161H35.3467V234.938C35.5257 234.664 35.695 234.467 35.8545 234.347C36.141 234.132 36.5039 234.024 36.9434 234.024Z" fill="#CBD5E0"/>
<path d="M8.00391 210.435C8.00391 211.249 8.07064 211.872 8.2041 212.305C8.33757 212.735 8.611 212.949 9.02441 212.949C9.43783 212.949 9.70801 212.735 9.83496 212.305C9.96517 211.872 10.0303 211.249 10.0303 210.435C10.0303 209.582 9.96517 208.95 9.83496 208.54C9.70801 208.13 9.43783 207.925 9.02441 207.925C8.611 207.925 8.33757 208.13 8.2041 208.54C8.07064 208.95 8.00391 209.582 8.00391 210.435ZM9.02441 206.778C9.92611 206.778 10.5576 207.095 10.9189 207.73C11.2835 208.365 11.4658 209.266 11.4658 210.435C11.4658 211.603 11.2835 212.503 10.9189 213.135C10.5576 213.767 9.92611 214.082 9.02441 214.082C8.12272 214.082 7.48958 213.767 7.125 213.135C6.76367 212.503 6.58301 211.603 6.58301 210.435C6.58301 209.266 6.76367 208.365 7.125 207.73C7.48958 207.095 8.12272 206.778 9.02441 206.778Z" fill="#CBD5E0"/>
<path d="M1.11816 168.441V167.494C1.55762 167.474 1.86523 167.445 2.04102 167.406C2.32096 167.344 2.54883 167.22 2.72461 167.035C2.84505 166.908 2.9362 166.738 2.99805 166.527C3.03385 166.4 3.05176 166.306 3.05176 166.244H4.20898V173.324H2.7832V168.441H1.11816ZM7.72461 169.852C7.72461 170.666 7.79134 171.289 7.9248 171.722C8.05827 172.152 8.33171 172.367 8.74512 172.367C9.15853 172.367 9.42871 172.152 9.55566 171.722C9.68587 171.289 9.75098 170.666 9.75098 169.852C9.75098 168.999 9.68587 168.368 9.55566 167.958C9.42871 167.547 9.15853 167.342 8.74512 167.342C8.33171 167.342 8.05827 167.547 7.9248 167.958C7.79134 168.368 7.72461 168.999 7.72461 169.852ZM8.74512 166.195C9.64681 166.195 10.2783 166.512 10.6396 167.147C11.0042 167.782 11.1865 168.683 11.1865 169.852C11.1865 171.021 11.0042 171.921 10.6396 172.552C10.2783 173.184 9.64681 173.5 8.74512 173.5C7.84342 173.5 7.21029 173.184 6.8457 172.552C6.48438 171.921 6.30371 171.021 6.30371 169.852C6.30371 168.683 6.48438 167.782 6.8457 167.147C7.21029 166.512 7.84342 166.195 8.74512 166.195ZM13.291 169.852C13.291 170.666 13.3577 171.289 13.4912 171.722C13.6247 172.152 13.8981 172.367 14.3115 172.367C14.7249 172.367 14.9951 172.152 15.1221 171.722C15.2523 171.289 15.3174 170.666 15.3174 169.852C15.3174 168.999 15.2523 168.368 15.1221 167.958C14.9951 167.547 14.7249 167.342 14.3115 167.342C13.8981 167.342 13.6247 167.547 13.4912 167.958C13.3577 168.368 13.291 168.999 13.291 169.852ZM14.3115 166.195C15.2132 166.195 15.8447 166.512 16.2061 167.147C16.5706 167.782 16.7529 168.683 16.7529 169.852C16.7529 171.021 16.5706 171.921 16.2061 172.552C15.8447 173.184 15.2132 173.5 14.3115 173.5C13.4098 173.5 12.7767 173.184 12.4121 172.552C12.0508 171.921 11.8701 171.021 11.8701 169.852C11.8701 168.683 12.0508 167.782 12.4121 167.147C12.7767 166.512 13.4098 166.195 14.3115 166.195Z" fill="#CBD5E0"/>
<path d="M0.737305 132.741C0.750326 132.233 0.859375 131.769 1.06445 131.349C1.26302 130.877 1.73177 130.378 2.4707 129.85C3.11198 129.391 3.52702 129.063 3.71582 128.864C4.00553 128.555 4.15039 128.216 4.15039 127.848C4.15039 127.549 4.06738 127.3 3.90137 127.101C3.73535 126.903 3.49772 126.804 3.18848 126.804C2.7653 126.804 2.47721 126.961 2.32422 127.277C2.23633 127.459 2.18424 127.749 2.16797 128.146H0.81543C0.838216 127.544 0.947266 127.057 1.14258 126.686C1.51367 125.98 2.17285 125.627 3.12012 125.627C3.86882 125.627 4.46452 125.835 4.90723 126.252C5.34993 126.665 5.57129 127.214 5.57129 127.897C5.57129 128.421 5.41504 128.887 5.10254 129.294C4.89746 129.564 4.56055 129.865 4.0918 130.197L3.53516 130.593C3.18685 130.84 2.94759 131.019 2.81738 131.13C2.69043 131.24 2.58301 131.369 2.49512 131.515H5.58594V132.741H0.737305ZM7.72461 129.269C7.72461 130.083 7.79134 130.707 7.9248 131.139C8.05827 131.569 8.33171 131.784 8.74512 131.784C9.15853 131.784 9.42871 131.569 9.55566 131.139C9.68587 130.707 9.75098 130.083 9.75098 129.269C9.75098 128.416 9.68587 127.785 9.55566 127.375C9.42871 126.965 9.15853 126.76 8.74512 126.76C8.33171 126.76 8.05827 126.965 7.9248 127.375C7.79134 127.785 7.72461 128.416 7.72461 129.269ZM8.74512 125.612C9.64681 125.612 10.2783 125.93 10.6396 126.564C11.0042 127.199 11.1865 128.101 11.1865 129.269C11.1865 130.438 11.0042 131.338 10.6396 131.97C10.2783 132.601 9.64681 132.917 8.74512 132.917C7.84342 132.917 7.21029 132.601 6.8457 131.97C6.48438 131.338 6.30371 130.438 6.30371 129.269C6.30371 128.101 6.48438 127.199 6.8457 126.564C7.21029 125.93 7.84342 125.612 8.74512 125.612ZM13.291 129.269C13.291 130.083 13.3577 130.707 13.4912 131.139C13.6247 131.569 13.8981 131.784 14.3115 131.784C14.7249 131.784 14.9951 131.569 15.1221 131.139C15.2523 130.707 15.3174 130.083 15.3174 129.269C15.3174 128.416 15.2523 127.785 15.1221 127.375C14.9951 126.965 14.7249 126.76 14.3115 126.76C13.8981 126.76 13.6247 126.965 13.4912 127.375C13.3577 127.785 13.291 128.416 13.291 129.269ZM14.3115 125.612C15.2132 125.612 15.8447 125.93 16.2061 126.564C16.5706 127.199 16.7529 128.101 16.7529 129.269C16.7529 130.438 16.5706 131.338 16.2061 131.97C15.8447 132.601 15.2132 132.917 14.3115 132.917C13.4098 132.917 12.7767 132.601 12.4121 131.97C12.0508 131.338 11.8701 130.438 11.8701 129.269C11.8701 128.101 12.0508 127.199 12.4121 126.564C12.7767 125.93 13.4098 125.612 14.3115 125.612Z" fill="#CBD5E0"/>
<path d="M2.05566 89.9854C2.05566 90.2686 2.10124 90.503 2.19238 90.6885C2.36165 91.0303 2.66927 91.2012 3.11523 91.2012C3.38867 91.2012 3.6263 91.1085 3.82812 90.9229C4.0332 90.7341 4.13574 90.4639 4.13574 90.1124C4.13574 89.6469 3.94694 89.336 3.56934 89.1797C3.35449 89.0919 3.01595 89.0479 2.55371 89.0479V88.0518C3.00618 88.0453 3.32194 88.0014 3.50098 87.92C3.81022 87.7833 3.96484 87.5066 3.96484 87.0899C3.96484 86.8197 3.88509 86.6 3.72559 86.4307C3.56934 86.2615 3.34798 86.1768 3.06152 86.1768C2.73275 86.1768 2.49023 86.281 2.33398 86.4893C2.18099 86.6977 2.10775 86.976 2.11426 87.3243H0.81543C0.828451 86.9727 0.888672 86.6391 0.996094 86.3233C1.11003 86.0466 1.28906 85.7911 1.5332 85.5567C1.71549 85.3907 1.93197 85.2637 2.18262 85.1758C2.43327 85.088 2.74089 85.044 3.10547 85.044C3.78255 85.044 4.3278 85.2198 4.74121 85.5714C5.15788 85.9197 5.36621 86.3884 5.36621 86.9776C5.36621 87.3943 5.24251 87.7458 4.99512 88.0323C4.83887 88.2113 4.67611 88.3334 4.50684 88.3985C4.63379 88.3985 4.81608 88.5075 5.05371 88.7256C5.40853 89.0544 5.58594 89.5036 5.58594 90.0733C5.58594 90.6723 5.3776 91.1996 4.96094 91.6553C4.54753 92.1078 3.93392 92.334 3.12012 92.334C2.11751 92.334 1.4209 92.0069 1.03027 91.3526C0.825195 91.0043 0.711263 90.5486 0.688477 89.9854H2.05566ZM7.72461 88.6866C7.72461 89.5004 7.79134 90.1238 7.9248 90.5567C8.05827 90.9864 8.33171 91.2012 8.74512 91.2012C9.15853 91.2012 9.42871 90.9864 9.55566 90.5567C9.68587 90.1238 9.75098 89.5004 9.75098 88.6866C9.75098 87.8337 9.68587 87.2022 9.55566 86.7921C9.42871 86.3819 9.15853 86.1768 8.74512 86.1768C8.33171 86.1768 8.05827 86.3819 7.9248 86.7921C7.79134 87.2022 7.72461 87.8337 7.72461 88.6866ZM8.74512 85.0294C9.64681 85.0294 10.2783 85.3467 10.6396 85.9815C11.0042 86.6163 11.1865 87.518 11.1865 88.6866C11.1865 89.8552 11.0042 90.7553 10.6396 91.3868C10.2783 92.0183 9.64681 92.334 8.74512 92.334C7.84342 92.334 7.21029 92.0183 6.8457 91.3868C6.48438 90.7553 6.30371 89.8552 6.30371 88.6866C6.30371 87.518 6.48438 86.6163 6.8457 85.9815C7.21029 85.3467 7.84342 85.0294 8.74512 85.0294ZM13.291 88.6866C13.291 89.5004 13.3577 90.1238 13.4912 90.5567C13.6247 90.9864 13.8981 91.2012 14.3115 91.2012C14.7249 91.2012 14.9951 90.9864 15.1221 90.5567C15.2523 90.1238 15.3174 89.5004 15.3174 88.6866C15.3174 87.8337 15.2523 87.2022 15.1221 86.7921C14.9951 86.3819 14.7249 86.1768 14.3115 86.1768C13.8981 86.1768 13.6247 86.3819 13.4912 86.7921C13.3577 87.2022 13.291 87.8337 13.291 88.6866ZM14.3115 85.0294C15.2132 85.0294 15.8447 85.3467 16.2061 85.9815C16.5706 86.6163 16.7529 87.518 16.7529 88.6866C16.7529 89.8552 16.5706 90.7553 16.2061 91.3868C15.8447 92.0183 15.2132 92.334 14.3115 92.334C13.4098 92.334 12.7767 92.0183 12.4121 91.3868C12.0508 90.7553 11.8701 89.8552 11.8701 88.6866C11.8701 87.518 12.0508 86.6163 12.4121 85.9815C12.7767 85.3467 13.4098 85.0294 14.3115 85.0294Z" fill="#CBD5E0"/>
<path d="M5.6543 50.0521H4.85352V51.5755H3.49121V50.0521H0.688477V48.8362L3.29102 44.5394H4.85352V48.9632H5.6543V50.0521ZM3.49121 48.9632V45.9066L1.71875 48.9632H3.49121ZM7.72461 48.1038C7.72461 48.9176 7.79134 49.541 7.9248 49.9739C8.05827 50.4036 8.33171 50.6185 8.74512 50.6185C9.15853 50.6185 9.42871 50.4036 9.55566 49.9739C9.68587 49.541 9.75098 48.9176 9.75098 48.1038C9.75098 47.251 9.68587 46.6194 9.55566 46.2093C9.42871 45.7991 9.15853 45.5941 8.74512 45.5941C8.33171 45.5941 8.05827 45.7991 7.9248 46.2093C7.79134 46.6194 7.72461 47.251 7.72461 48.1038ZM8.74512 44.4466C9.64681 44.4466 10.2783 44.764 10.6396 45.3987C11.0042 46.0335 11.1865 46.9352 11.1865 48.1038C11.1865 49.2724 11.0042 50.1725 10.6396 50.804C10.2783 51.4355 9.64681 51.7513 8.74512 51.7513C7.84342 51.7513 7.21029 51.4355 6.8457 50.804C6.48438 50.1725 6.30371 49.2724 6.30371 48.1038C6.30371 46.9352 6.48438 46.0335 6.8457 45.3987C7.21029 44.764 7.84342 44.4466 8.74512 44.4466ZM13.291 48.1038C13.291 48.9176 13.3577 49.541 13.4912 49.9739C13.6247 50.4036 13.8981 50.6185 14.3115 50.6185C14.7249 50.6185 14.9951 50.4036 15.1221 49.9739C15.2523 49.541 15.3174 48.9176 15.3174 48.1038C15.3174 47.251 15.2523 46.6194 15.1221 46.2093C14.9951 45.7991 14.7249 45.5941 14.3115 45.5941C13.8981 45.5941 13.6247 45.7991 13.4912 46.2093C13.3577 46.6194 13.291 47.251 13.291 48.1038ZM14.3115 44.4466C15.2132 44.4466 15.8447 44.764 16.2061 45.3987C16.5706 46.0335 16.7529 46.9352 16.7529 48.1038C16.7529 49.2724 16.5706 50.1725 16.2061 50.804C15.8447 51.4355 15.2132 51.7513 14.3115 51.7513C13.4098 51.7513 12.7767 51.4355 12.4121 50.804C12.0508 50.1725 11.8701 49.2724 11.8701 48.1038C11.8701 46.9352 12.0508 46.0335 12.4121 45.3987C12.7767 44.764 13.4098 44.4466 14.3115 44.4466Z" fill="#CBD5E0"/>
<path d="M2.0752 9.09827C2.13053 9.401 2.23633 9.63538 2.39258 9.80139C2.54883 9.96415 2.77669 10.0455 3.07617 10.0455C3.42122 10.0455 3.68327 9.92509 3.8623 9.6842C4.0446 9.44006 4.13574 9.13407 4.13574 8.76624C4.13574 8.40491 4.05111 8.10055 3.88184 7.85315C3.71257 7.6025 3.44889 7.47717 3.09082 7.47717C2.92155 7.47717 2.77507 7.49833 2.65137 7.54065C2.43327 7.61877 2.26888 7.76363 2.1582 7.97522L0.908203 7.91663L1.40625 4.00549H5.30762V5.18713H2.41211L2.1582 6.73499C2.37305 6.59501 2.54069 6.50224 2.66113 6.45667C2.86296 6.3818 3.10872 6.34436 3.39844 6.34436C3.98438 6.34436 4.49544 6.5413 4.93164 6.93518C5.36784 7.32906 5.58594 7.90198 5.58594 8.65393C5.58594 9.30823 5.37598 9.89254 4.95605 10.4069C4.53613 10.9212 3.90788 11.1783 3.07129 11.1783C2.39746 11.1783 1.84408 10.9977 1.41113 10.6364C0.97819 10.275 0.737305 9.76233 0.688477 9.09827H2.0752ZM7.72461 7.52112C7.72461 8.33492 7.79134 8.95829 7.9248 9.39124C8.05827 9.82092 8.33171 10.0358 8.74512 10.0358C9.15853 10.0358 9.42871 9.82092 9.55566 9.39124C9.68587 8.95829 9.75098 8.33492 9.75098 7.52112C9.75098 6.66825 9.68587 6.03674 9.55566 5.62659C9.42871 5.21643 9.15853 5.01135 8.74512 5.01135C8.33171 5.01135 8.05827 5.21643 7.9248 5.62659C7.79134 6.03674 7.72461 6.66825 7.72461 7.52112ZM8.74512 3.86389C9.64681 3.86389 10.2783 4.18127 10.6396 4.81604C11.0042 5.45081 11.1865 6.3525 11.1865 7.52112C11.1865 8.68974 11.0042 9.5898 10.6396 10.2213C10.2783 10.8528 9.64681 11.1686 8.74512 11.1686C7.84342 11.1686 7.21029 10.8528 6.8457 10.2213C6.48438 9.5898 6.30371 8.68974 6.30371 7.52112C6.30371 6.3525 6.48438 5.45081 6.8457 4.81604C7.21029 4.18127 7.84342 3.86389 8.74512 3.86389ZM13.291 7.52112C13.291 8.33492 13.3577 8.95829 13.4912 9.39124C13.6247 9.82092 13.8981 10.0358 14.3115 10.0358C14.7249 10.0358 14.9951 9.82092 15.1221 9.39124C15.2523 8.95829 15.3174 8.33492 15.3174 7.52112C15.3174 6.66825 15.2523 6.03674 15.1221 5.62659C14.9951 5.21643 14.7249 5.01135 14.3115 5.01135C13.8981 5.01135 13.6247 5.21643 13.4912 5.62659C13.3577 6.03674 13.291 6.66825 13.291 7.52112ZM14.3115 3.86389C15.2132 3.86389 15.8447 4.18127 16.2061 4.81604C16.5706 5.45081 16.7529 6.3525 16.7529 7.52112C16.7529 8.68974 16.5706 9.5898 16.2061 10.2213C15.8447 10.8528 15.2132 11.1686 14.3115 11.1686C13.4098 11.1686 12.7767 10.8528 12.4121 10.2213C12.0508 9.5898 11.8701 8.68974 11.8701 7.52112C11.8701 6.3525 12.0508 5.45081 12.4121 4.81604C12.7767 4.18127 13.4098 3.86389 14.3115 3.86389Z" fill="#CBD5E0"/>
<line x1="22.7119" y1="208.494" x2="468.076" y2="208.494" stroke="#E2E8F0" stroke-linecap="round" stroke-linejoin="round" stroke-dasharray="3.5 3.5"/>
<line x1="22.7119" y1="167.911" x2="468.076" y2="167.911" stroke="#E2E8F0" stroke-linecap="round" stroke-linejoin="round" stroke-dasharray="3.5 3.5"/>
<line x1="22.7119" y1="127.328" x2="468.076" y2="127.328" stroke="#E2E8F0" stroke-linecap="round" stroke-linejoin="round" stroke-dasharray="3.5 3.5"/>
<line x1="22.7119" y1="86.7457" x2="468.076" y2="86.7457" stroke="#E2E8F0" stroke-linecap="round" stroke-linejoin="round" stroke-dasharray="3.5 3.5"/>
<line x1="22.7119" y1="46.1629" x2="468.076" y2="46.1629" stroke="#E2E8F0" stroke-linecap="round" stroke-linejoin="round" stroke-dasharray="3.5 3.5"/>
<line x1="22.7119" y1="5.5802" x2="468.076" y2="5.58024" stroke="#E2E8F0" stroke-linecap="round" stroke-linejoin="round" stroke-dasharray="3.5 3.5"/>
<path d="M407.574 143.692C430.746 133.062 457.897 148.122 468.575 156.981V208.791H22.2116V6.0802C44.6365 12.1613 59.0526 62.1612 62.6566 93.9179C65.596 119.819 65.7267 138.287 81.3441 143.692C97.045 149.127 115.66 131.834 131.411 108.411C144.012 89.6725 162.476 57.1922 170.307 65C184.189 78.5885 205.173 89.3738 223.54 75.5C246.499 58.1577 260.334 18.6126 289.299 31C318.265 43.3874 316.18 51.6307 340.341 71C364.501 90.3693 378.608 156.981 407.574 143.692Z" fill="url(#paint0_linear_62_2247)"/>
<path d="M468.575 156.981C457.897 148.122 430.746 133.062 407.574 143.692C378.608 156.981 364.726 88.5088 340.566 69.1395C316.406 49.7702 319.342 41.8874 290.377 29.5C261.411 17.1126 248.73 55.1577 225.772 72.5C207.404 86.3739 184.537 77.1585 170.655 63.5699C162.824 55.7622 144.012 89.6725 131.411 108.411C115.66 131.834 97.045 149.127 81.3441 143.692C65.7267 138.287 65.596 119.819 62.6566 93.9179C59.0526 62.1612 44.6365 12.1613 22.2116 6.0802" stroke="#2D3748" stroke-width="3"/>
<path d="M449.313 121.5C472.485 110.869 457.897 66.6412 468.576 75.5V208.791H22.2121V57.5C44.637 63.5811 59.0531 62.1612 62.6571 93.9179C65.5965 119.819 70.1425 110.095 85.7599 115.5C101.461 120.934 104.767 122.923 120.518 99.5C133.119 80.7613 158.405 34.6922 166.236 42.5C180.118 56.0885 224.901 138.874 243.268 125C266.227 107.658 280.688 69.1126 309.653 81.5C338.619 93.8874 360.646 26.6307 384.806 46C408.967 65.3693 420.347 134.788 449.313 121.5Z" fill="url(#paint1_linear_62_2247)"/>
<path d="M469.041 76.5C458.362 67.6412 474.051 110.278 450.879 120.908C421.913 134.196 408.344 64.8164 384.184 45.4471C360.024 26.0778 337.152 93.3874 308.187 81C279.221 68.6126 266.54 106.658 243.581 124C225.214 137.874 180.533 54.2473 166.651 40.6588C158.82 32.851 140.008 66.7613 127.407 85.5C111.656 108.923 106.471 121.934 90.7701 116.5C75.1527 111.095 65.5966 119.819 62.6571 93.9179C59.0531 62.1612 44.6179 63.081 22.193 57" stroke="#2866D0" stroke-width="3"/>
<defs>
<linearGradient id="paint0_linear_62_2247" x1="245.393" y1="6.0802" x2="245.393" y2="208.791" gradientUnits="userSpaceOnUse">
<stop stop-color="#2D3748" stop-opacity="0.36"/>
<stop offset="1" stop-color="#2D3748" stop-opacity="0"/>
</linearGradient>
<linearGradient id="paint1_linear_62_2247" x1="245.394" y1="6.08032" x2="245.394" y2="208.791" gradientUnits="userSpaceOnUse">
<stop stop-color="#2C5EB3" stop-opacity="0.36"/>
<stop offset="1" stop-color="#3A6BBE" stop-opacity="0"/>
</linearGradient>
</defs>
</svg>