<svg width="753" height="242" viewBox="0 0 753 242" fill="none" xmlns="http://www.w3.org/2000/svg"> 
          <path d="M736.404 233.526V238.224H737.79C738.5 238.224 738.995 237.874 739.275 237.174C739.428 236.79 739.504 236.332 739.504 235.802C739.504 235.069 739.389 234.508 739.157 234.117C738.93 233.723 738.474 233.526 737.79 233.526H736.404ZM738.044 232.276C738.49 232.283 738.861 232.335 739.157 232.433C739.662 232.599 740.071 232.903 740.383 233.346C740.634 233.704 740.805 234.091 740.896 234.508C740.987 234.924 741.032 235.322 741.032 235.699C741.032 236.656 740.84 237.467 740.456 238.131C739.935 239.026 739.131 239.474 738.044 239.474H734.944V232.276H738.044ZM744.157 235.157C743.835 235.157 743.585 235.258 743.406 235.46C743.23 235.662 743.119 235.935 743.073 236.28H745.237C745.214 235.912 745.101 235.634 744.9 235.445C744.701 235.253 744.454 235.157 744.157 235.157ZM744.157 234.01C744.6 234.01 744.999 234.093 745.354 234.259C745.709 234.425 746.002 234.687 746.233 235.045C746.441 235.361 746.576 235.727 746.638 236.144C746.674 236.388 746.688 236.739 746.682 237.198H743.039C743.059 237.732 743.226 238.106 743.542 238.321C743.734 238.455 743.965 238.521 744.236 238.521C744.522 238.521 744.755 238.44 744.934 238.277C745.031 238.189 745.118 238.067 745.193 237.911H746.614C746.578 238.227 746.413 238.548 746.12 238.873C745.665 239.391 745.027 239.649 744.206 239.649C743.529 239.649 742.932 239.431 742.414 238.995C741.897 238.559 741.638 237.849 741.638 236.866C741.638 235.945 741.871 235.239 742.336 234.747C742.805 234.256 743.412 234.01 744.157 234.01ZM750.803 236.061C750.777 235.862 750.71 235.683 750.603 235.523C750.447 235.309 750.204 235.201 749.875 235.201C749.406 235.201 749.086 235.434 748.913 235.899C748.822 236.147 748.777 236.476 748.777 236.886C748.777 237.276 748.822 237.59 748.913 237.828C749.079 238.271 749.392 238.492 749.851 238.492C750.176 238.492 750.407 238.404 750.544 238.229C750.681 238.053 750.764 237.825 750.793 237.545H752.214C752.182 237.968 752.029 238.368 751.755 238.746C751.319 239.355 750.673 239.659 749.817 239.659C748.961 239.659 748.331 239.405 747.927 238.897C747.523 238.39 747.322 237.73 747.322 236.92C747.322 236.005 747.545 235.294 747.99 234.786C748.436 234.278 749.052 234.024 749.836 234.024C750.503 234.024 751.049 234.174 751.472 234.474C751.898 234.773 752.151 235.302 752.229 236.061H750.803Z" fill="#CBD5E0"/> <path d="M670.434 232.276H672.011L674.878 237.301V232.276H676.279V239.474H674.775L671.836 234.361V239.474H670.434V232.276ZM679.961 238.492C680.368 238.492 680.68 238.347 680.898 238.058C681.116 237.768 681.225 237.356 681.225 236.822C681.225 236.288 681.116 235.878 680.898 235.592C680.68 235.302 680.368 235.157 679.961 235.157C679.554 235.157 679.24 235.302 679.018 235.592C678.8 235.878 678.691 236.288 678.691 236.822C678.691 237.356 678.8 237.768 679.018 238.058C679.24 238.347 679.554 238.492 679.961 238.492ZM682.685 236.822C682.685 237.604 682.461 238.272 682.011 238.829C681.562 239.382 680.88 239.659 679.966 239.659C679.051 239.659 678.369 239.382 677.92 238.829C677.47 238.272 677.246 237.604 677.246 236.822C677.246 236.054 677.47 235.388 677.92 234.825C678.369 234.262 679.051 233.98 679.966 233.98C680.88 233.98 681.562 234.262 682.011 234.825C682.461 235.388 682.685 236.054 682.685 236.822ZM686.968 234.151H688.462L686.543 239.474H685.073L683.164 234.151H684.726L685.835 238.077L686.968 234.151Z" fill="#CBD5E0"/> <path d="M610.854 238.399C611.45 238.399 611.922 238.18 612.271 237.74C612.622 237.301 612.798 236.676 612.798 235.865C612.798 235.058 612.622 234.435 612.271 233.995C611.922 233.552 611.45 233.331 610.854 233.331C610.259 233.331 609.784 233.551 609.429 233.99C609.074 234.43 608.896 235.055 608.896 235.865C608.896 236.676 609.074 237.301 609.429 237.74C609.784 238.18 610.259 238.399 610.854 238.399ZM614.302 235.865C614.302 237.158 613.939 238.147 613.213 238.834C612.669 239.394 611.883 239.674 610.854 239.674C609.826 239.674 609.04 239.394 608.496 238.834C607.767 238.147 607.402 237.158 607.402 235.865C607.402 234.547 607.767 233.557 608.496 232.896C609.04 232.337 609.826 232.057 610.854 232.057C611.883 232.057 612.669 232.337 613.213 232.896C613.939 233.557 614.302 234.547 614.302 235.865ZM618.521 236.061C618.494 235.862 618.428 235.683 618.32 235.523C618.164 235.309 617.922 235.201 617.593 235.201C617.124 235.201 616.803 235.434 616.631 235.899C616.54 236.147 616.494 236.476 616.494 236.886C616.494 237.276 616.54 237.59 616.631 237.828C616.797 238.271 617.109 238.492 617.568 238.492C617.894 238.492 618.125 238.404 618.262 238.229C618.398 238.053 618.481 237.825 618.511 237.545H619.932C619.899 237.968 619.746 238.368 619.473 238.746C619.036 239.355 618.39 239.659 617.534 239.659C616.678 239.659 616.048 239.405 615.645 238.897C615.241 238.39 615.039 237.73 615.039 236.92C615.039 236.005 615.262 235.294 615.708 234.786C616.154 234.278 616.769 234.024 617.554 234.024C618.221 234.024 618.766 234.174 619.189 234.474C619.616 234.773 619.868 235.302 619.946 236.061H618.521ZM620.361 235.191V234.2H621.104V232.716H622.48V234.2H623.345V235.191H622.48V238.004C622.48 238.222 622.508 238.359 622.563 238.414C622.619 238.466 622.788 238.492 623.071 238.492C623.114 238.492 623.158 238.492 623.203 238.492C623.252 238.489 623.299 238.486 623.345 238.482V239.522L622.686 239.547C622.028 239.57 621.579 239.456 621.338 239.205C621.182 239.046 621.104 238.8 621.104 238.468V235.191H620.361Z" fill="#CBD5E0"/>

          <path d="M544.699 237.252C544.745 237.581 544.834 237.826 544.968 237.989C545.212 238.285 545.63 238.434 546.223 238.434C546.577 238.434 546.865 238.395 547.087 238.316C547.507 238.167 547.717 237.888 547.717 237.481C547.717 237.244 547.613 237.06 547.404 236.93C547.196 236.803 546.869 236.69 546.423 236.593L545.661 236.422C544.912 236.253 544.395 236.069 544.108 235.87C543.623 235.538 543.381 235.019 543.381 234.312C543.381 233.668 543.615 233.132 544.084 232.706C544.553 232.28 545.241 232.066 546.149 232.066C546.908 232.066 547.554 232.268 548.088 232.672C548.625 233.072 548.906 233.655 548.932 234.42H547.487C547.461 233.987 547.272 233.679 546.921 233.497C546.686 233.377 546.395 233.316 546.047 233.316C545.659 233.316 545.35 233.395 545.119 233.551C544.888 233.707 544.772 233.925 544.772 234.205C544.772 234.462 544.886 234.654 545.114 234.781C545.261 234.866 545.573 234.965 546.052 235.079L547.292 235.377C547.835 235.507 548.246 235.681 548.522 235.899C548.952 236.238 549.167 236.728 549.167 237.369C549.167 238.027 548.915 238.574 548.41 239.01C547.909 239.443 547.199 239.659 546.281 239.659C545.344 239.659 544.606 239.446 544.069 239.02C543.532 238.59 543.264 238.001 543.264 237.252H544.699ZM552.267 235.157C551.945 235.157 551.695 235.258 551.516 235.46C551.34 235.662 551.229 235.935 551.183 236.28H553.347C553.324 235.912 553.211 235.634 553.01 235.445C552.811 235.253 552.564 235.157 552.267 235.157ZM552.267 234.01C552.71 234.01 553.109 234.093 553.464 234.259C553.819 234.425 554.112 234.687 554.343 235.045C554.551 235.361 554.686 235.727 554.748 236.144C554.784 236.388 554.798 236.739 554.792 237.198H551.149C551.169 237.732 551.336 238.106 551.652 238.321C551.844 238.455 552.075 238.521 552.346 238.521C552.632 238.521 552.865 238.44 553.044 238.277C553.141 238.189 553.228 238.067 553.303 237.911H554.724C554.688 238.227 554.523 238.548 554.23 238.873C553.775 239.391 553.137 239.649 552.316 239.649C551.639 239.649 551.042 239.431 550.524 238.995C550.007 238.559 549.748 237.849 549.748 236.866C549.748 235.945 549.981 235.239 550.446 234.747C550.915 234.256 551.522 234.01 552.267 234.01ZM559.401 236.812C559.401 236.402 559.307 236.039 559.118 235.724C558.932 235.408 558.63 235.25 558.21 235.25C557.705 235.25 557.359 235.489 557.17 235.968C557.072 236.222 557.023 236.544 557.023 236.935C557.023 237.553 557.188 237.988 557.516 238.238C557.712 238.385 557.943 238.458 558.21 238.458C558.597 238.458 558.892 238.308 559.094 238.009C559.299 237.709 559.401 237.311 559.401 236.812ZM558.61 234.034C559.232 234.034 559.758 234.264 560.187 234.723C560.62 235.182 560.837 235.855 560.837 236.744C560.837 237.682 560.625 238.396 560.202 238.888C559.782 239.379 559.24 239.625 558.576 239.625C558.153 239.625 557.801 239.519 557.521 239.308C557.368 239.19 557.219 239.02 557.072 238.795V241.568H555.695V234.151H557.028V234.938C557.178 234.706 557.337 234.524 557.507 234.391C557.816 234.153 558.184 234.034 558.61 234.034Z" fill="#CBD5E0"/> <path d="M480.669 236.754H482.495L481.597 233.922L480.669 236.754ZM480.762 232.276H482.461L485.01 239.474H483.379L482.915 237.994H480.264L479.766 239.474H478.193L480.762 232.276ZM487.202 234.151V237.359C487.202 237.662 487.238 237.89 487.31 238.043C487.436 238.313 487.685 238.448 488.057 238.448C488.532 238.448 488.857 238.256 489.033 237.872C489.124 237.664 489.17 237.389 489.17 237.047V234.151H490.581V239.474H489.228V238.722C489.215 238.738 489.183 238.787 489.131 238.868C489.079 238.95 489.017 239.021 488.945 239.083C488.727 239.278 488.516 239.412 488.31 239.483C488.109 239.555 487.871 239.591 487.598 239.591C486.81 239.591 486.279 239.308 486.006 238.741C485.853 238.429 485.776 237.968 485.776 237.359V234.151H487.202ZM494.214 238.331C494.539 238.331 494.814 238.209 495.039 237.965C495.264 237.717 495.376 237.325 495.376 236.788C495.376 236.284 495.268 235.899 495.054 235.636C494.842 235.372 494.557 235.24 494.199 235.24C493.711 235.24 493.374 235.47 493.188 235.929C493.091 236.173 493.042 236.474 493.042 236.832C493.042 237.141 493.094 237.416 493.198 237.657C493.387 238.106 493.726 238.331 494.214 238.331ZM493.867 234.024C494.134 234.024 494.367 234.065 494.565 234.146C494.904 234.286 495.177 234.544 495.386 234.918V234.151H496.738V239.2C496.738 239.887 496.623 240.405 496.392 240.753C495.994 241.352 495.233 241.651 494.106 241.651C493.426 241.651 492.871 241.518 492.441 241.251C492.012 240.984 491.774 240.585 491.728 240.055H493.242C493.281 240.217 493.345 240.335 493.433 240.406C493.582 240.533 493.835 240.597 494.189 240.597C494.691 240.597 495.026 240.429 495.195 240.094C495.306 239.879 495.361 239.518 495.361 239.01V238.668C495.228 238.896 495.085 239.067 494.932 239.181C494.655 239.392 494.295 239.498 493.852 239.498C493.169 239.498 492.622 239.259 492.212 238.78C491.805 238.299 491.602 237.647 491.602 236.827C491.602 236.036 491.798 235.372 492.192 234.835C492.586 234.295 493.144 234.024 493.867 234.024Z" fill="#CBD5E0"/> <path d="M418.913 236.744V236.91C418.926 237.467 418.987 237.859 419.094 238.087C419.205 238.312 419.439 238.424 419.797 238.424C420.152 238.424 420.386 238.3 420.5 238.053C420.569 237.906 420.603 237.659 420.603 237.311V232.276H422.107V237.286C422.107 237.898 422.001 238.383 421.789 238.741C421.431 239.347 420.785 239.649 419.851 239.649C418.917 239.649 418.29 239.405 417.971 238.917C417.652 238.425 417.492 237.757 417.492 236.91V236.744H418.913ZM424.875 234.151V237.359C424.875 237.662 424.911 237.89 424.983 238.043C425.11 238.313 425.359 238.448 425.73 238.448C426.205 238.448 426.531 238.256 426.706 237.872C426.798 237.664 426.843 237.389 426.843 237.047V234.151H428.254V239.474H426.902V238.722C426.889 238.738 426.856 238.787 426.804 238.868C426.752 238.95 426.69 239.021 426.618 239.083C426.4 239.278 426.189 239.412 425.984 239.483C425.782 239.555 425.544 239.591 425.271 239.591C424.483 239.591 423.952 239.308 423.679 238.741C423.526 238.429 423.45 237.968 423.45 237.359V234.151H424.875ZM431.023 239.474H429.631V232.276H431.023V239.474Z" fill="#CBD5E0"/> <path d="M355.277 236.744V236.91C355.29 237.467 355.35 237.859 355.458 238.087C355.568 238.312 355.803 238.424 356.161 238.424C356.516 238.424 356.75 238.3 356.864 238.053C356.932 237.906 356.966 237.659 356.966 237.311V232.276H358.47V237.286C358.47 237.898 358.365 238.383 358.153 238.741C357.795 239.347 357.149 239.649 356.215 239.649C355.28 239.649 354.654 239.405 354.335 238.917C354.016 238.425 353.856 237.757 353.856 236.91V236.744H355.277ZM361.239 234.151V237.359C361.239 237.662 361.275 237.89 361.346 238.043C361.473 238.313 361.722 238.448 362.093 238.448C362.569 238.448 362.894 238.256 363.07 237.872C363.161 237.664 363.207 237.389 363.207 237.047V234.151H364.618V239.474H363.265V238.722C363.252 238.738 363.22 238.787 363.168 238.868C363.116 238.95 363.054 239.021 362.982 239.083C362.764 239.278 362.552 239.412 362.347 239.483C362.146 239.555 361.908 239.591 361.634 239.591C360.847 239.591 360.316 239.308 360.043 238.741C359.89 238.429 359.813 237.968 359.813 237.359V234.151H361.239ZM368.915 234.024C369.465 234.024 369.914 234.169 370.262 234.459C370.614 234.745 370.79 235.222 370.79 235.89V239.474H369.364V236.236C369.364 235.956 369.327 235.742 369.252 235.592C369.115 235.318 368.855 235.182 368.47 235.182C367.998 235.182 367.674 235.382 367.499 235.782C367.408 235.994 367.362 236.264 367.362 236.593V239.474H365.975V234.161H367.318V234.938C367.497 234.664 367.666 234.467 367.826 234.347C368.112 234.132 368.475 234.024 368.915 234.024Z" fill="#CBD5E0"/> <path d="M294.26 232.276H296.423V239.474H295.021V234.605C295.021 234.465 295.023 234.27 295.026 234.02C295.029 233.766 295.031 233.57 295.031 233.434L293.669 239.474H292.209L290.856 233.434C290.856 233.57 290.858 233.766 290.861 234.02C290.864 234.27 290.866 234.465 290.866 234.605V239.474H289.465V232.276H291.652L292.961 237.936L294.26 232.276ZM300.641 236.886C300.553 236.941 300.464 236.987 300.373 237.022C300.285 237.055 300.163 237.086 300.007 237.115L299.694 237.174C299.401 237.226 299.191 237.289 299.064 237.364C298.849 237.491 298.742 237.688 298.742 237.955C298.742 238.193 298.807 238.365 298.937 238.473C299.071 238.577 299.232 238.629 299.421 238.629C299.72 238.629 299.995 238.541 300.246 238.365C300.5 238.189 300.632 237.869 300.641 237.403V236.886ZM299.797 236.236C300.054 236.204 300.238 236.163 300.348 236.114C300.547 236.03 300.646 235.898 300.646 235.719C300.646 235.501 300.57 235.351 300.417 235.27C300.267 235.185 300.046 235.143 299.753 235.143C299.424 235.143 299.191 235.224 299.054 235.387C298.957 235.507 298.892 235.67 298.859 235.875H297.516C297.546 235.41 297.676 235.027 297.907 234.728C298.275 234.259 298.906 234.024 299.802 234.024C300.384 234.024 300.902 234.14 301.354 234.371C301.807 234.602 302.033 235.038 302.033 235.68V238.121C302.033 238.29 302.036 238.495 302.043 238.736C302.052 238.919 302.08 239.042 302.126 239.107C302.171 239.173 302.24 239.226 302.331 239.269V239.474H300.817C300.775 239.366 300.746 239.265 300.729 239.171C300.713 239.076 300.7 238.969 300.69 238.849C300.498 239.057 300.277 239.234 300.026 239.381C299.727 239.553 299.388 239.64 299.01 239.64C298.529 239.64 298.13 239.503 297.814 239.229C297.502 238.953 297.345 238.562 297.345 238.058C297.345 237.403 297.598 236.93 298.102 236.637C298.379 236.477 298.786 236.363 299.323 236.295L299.797 236.236ZM303.488 240.494L303.664 240.504C303.801 240.51 303.931 240.506 304.054 240.489C304.178 240.473 304.282 240.436 304.367 240.377C304.448 240.322 304.523 240.206 304.592 240.03C304.663 239.854 304.692 239.747 304.679 239.708L302.726 234.151H304.274L305.436 238.077L306.535 234.151H308.014L306.188 239.386C305.837 240.395 305.558 241.02 305.353 241.261C305.148 241.505 304.738 241.627 304.123 241.627C303.999 241.627 303.9 241.625 303.825 241.622C303.75 241.622 303.638 241.617 303.488 241.607V240.494Z" fill="#CBD5E0"/> <path d="M228.245 236.754H230.071L229.172 233.922L228.245 236.754ZM228.337 232.276H230.037L232.585 239.474H230.955L230.491 237.994H227.839L227.341 239.474H225.769L228.337 232.276ZM237.058 236.812C237.058 236.402 236.964 236.039 236.775 235.724C236.589 235.408 236.287 235.25 235.867 235.25C235.362 235.25 235.015 235.489 234.827 235.968C234.729 236.222 234.68 236.544 234.68 236.935C234.68 237.553 234.845 237.988 235.173 238.238C235.369 238.385 235.6 238.458 235.867 238.458C236.254 238.458 236.549 238.308 236.75 238.009C236.956 237.709 237.058 237.311 237.058 236.812ZM236.267 234.034C236.889 234.034 237.415 234.264 237.844 234.723C238.277 235.182 238.494 235.855 238.494 236.744C238.494 237.682 238.282 238.396 237.859 238.888C237.439 239.379 236.897 239.625 236.233 239.625C235.81 239.625 235.458 239.519 235.178 239.308C235.025 239.19 234.875 239.02 234.729 238.795V241.568H233.352V234.151H234.685V234.938C234.835 234.706 234.994 234.524 235.164 234.391C235.473 234.153 235.841 234.034 236.267 234.034ZM242.395 234.024C242.421 234.024 242.442 234.026 242.458 234.029C242.478 234.029 242.519 234.031 242.581 234.034V235.46C242.493 235.45 242.415 235.444 242.346 235.44C242.278 235.437 242.222 235.436 242.18 235.436C241.62 235.436 241.244 235.618 241.052 235.982C240.945 236.188 240.891 236.503 240.891 236.93V239.474H239.49V234.151H240.818V235.079C241.033 234.724 241.22 234.482 241.379 234.352C241.64 234.133 241.978 234.024 242.395 234.024Z" fill="#CBD5E0"/> <path d="M167.411 232.276H169.574V239.474H168.173V234.605C168.173 234.465 168.174 234.27 168.178 234.02C168.181 233.766 168.182 233.57 168.182 233.434L166.82 239.474H165.36L164.008 233.434C164.008 233.57 164.009 233.766 164.013 234.02C164.016 234.27 164.017 234.465 164.017 234.605V239.474H162.616V232.276H164.804L166.112 237.936L167.411 232.276ZM173.793 236.886C173.705 236.941 173.615 236.987 173.524 237.022C173.436 237.055 173.314 237.086 173.158 237.115L172.846 237.174C172.553 237.226 172.343 237.289 172.216 237.364C172.001 237.491 171.893 237.688 171.893 237.955C171.893 238.193 171.959 238.365 172.089 238.473C172.222 238.577 172.383 238.629 172.572 238.629C172.872 238.629 173.147 238.541 173.397 238.365C173.651 238.189 173.783 237.869 173.793 237.403V236.886ZM172.948 236.236C173.205 236.204 173.389 236.163 173.5 236.114C173.698 236.03 173.798 235.898 173.798 235.719C173.798 235.501 173.721 235.351 173.568 235.27C173.418 235.185 173.197 235.143 172.904 235.143C172.575 235.143 172.343 235.224 172.206 235.387C172.108 235.507 172.043 235.67 172.011 235.875H170.668C170.697 235.41 170.827 235.027 171.058 234.728C171.426 234.259 172.058 234.024 172.953 234.024C173.536 234.024 174.053 234.14 174.506 234.371C174.958 234.602 175.184 235.038 175.184 235.68V238.121C175.184 238.29 175.188 238.495 175.194 238.736C175.204 238.919 175.232 239.042 175.277 239.107C175.323 239.173 175.391 239.226 175.482 239.269V239.474H173.969C173.926 239.366 173.897 239.265 173.881 239.171C173.864 239.076 173.851 238.969 173.842 238.849C173.65 239.057 173.428 239.234 173.178 239.381C172.878 239.553 172.54 239.64 172.162 239.64C171.68 239.64 171.281 239.503 170.966 239.229C170.653 238.953 170.497 238.562 170.497 238.058C170.497 237.403 170.749 236.93 171.254 236.637C171.53 236.477 171.937 236.363 172.474 236.295L172.948 236.236ZM179.315 234.024C179.341 234.024 179.363 234.026 179.379 234.029C179.398 234.029 179.439 234.031 179.501 234.034V235.46C179.413 235.45 179.335 235.444 179.266 235.44C179.198 235.437 179.143 235.436 179.1 235.436C178.541 235.436 178.165 235.618 177.973 235.982C177.865 236.188 177.811 236.503 177.811 236.93V239.474H176.41V234.151H177.738V235.079C177.953 234.724 178.14 234.482 178.3 234.352C178.56 234.133 178.899 234.024 179.315 234.024Z" fill="#CBD5E0"/> <path d="M99.0042 232.286H104.107V233.551H100.498V235.206H103.658V236.456H100.498V239.474H99.0042V232.286ZM107.105 235.157C106.783 235.157 106.532 235.258 106.353 235.46C106.177 235.662 106.066 235.935 106.021 236.28H108.184C108.161 235.912 108.049 235.634 107.847 235.445C107.648 235.253 107.401 235.157 107.105 235.157ZM107.105 234.01C107.548 234.01 107.946 234.093 108.301 234.259C108.656 234.425 108.949 234.687 109.18 235.045C109.388 235.361 109.523 235.727 109.585 236.144C109.621 236.388 109.636 236.739 109.629 237.198H105.987C106.006 237.732 106.174 238.106 106.49 238.321C106.682 238.455 106.913 238.521 107.183 238.521C107.469 238.521 107.702 238.44 107.881 238.277C107.979 238.189 108.065 238.067 108.14 237.911H109.561C109.525 238.227 109.361 238.548 109.068 238.873C108.612 239.391 107.974 239.649 107.154 239.649C106.477 239.649 105.879 239.431 105.362 238.995C104.844 238.559 104.585 237.849 104.585 236.866C104.585 235.945 104.818 235.239 105.284 234.747C105.752 234.256 106.359 234.01 107.105 234.01ZM113.448 234.034C114.147 234.034 114.694 234.286 115.088 234.791C115.485 235.296 115.684 235.947 115.684 236.744C115.684 237.571 115.489 238.256 115.098 238.8C114.707 239.343 114.162 239.615 113.462 239.615C113.023 239.615 112.67 239.527 112.403 239.352C112.243 239.247 112.071 239.065 111.885 238.805V239.474H110.523V232.286H111.909V234.845C112.085 234.597 112.279 234.409 112.491 234.278C112.741 234.116 113.06 234.034 113.448 234.034ZM113.091 238.468C113.449 238.468 113.728 238.323 113.926 238.033C114.125 237.743 114.224 237.363 114.224 236.891C114.224 236.513 114.175 236.201 114.077 235.953C113.892 235.484 113.55 235.25 113.052 235.25C112.548 235.25 112.201 235.479 112.012 235.938C111.914 236.183 111.866 236.498 111.866 236.886C111.866 237.341 111.966 237.719 112.168 238.019C112.37 238.318 112.678 238.468 113.091 238.468Z" fill="#CBD5E0"/> <path d="M36.671 236.744V236.91C36.684 237.467 36.7442 237.859 36.8516 238.087C36.9623 238.312 37.1967 238.424 37.5547 238.424C37.9096 238.424 38.1439 238.3 38.2579 238.053C38.3262 237.906 38.3604 237.659 38.3604 237.311V232.276H39.8643V237.286C39.8643 237.898 39.7585 238.383 39.5469 238.741C39.1889 239.347 38.5427 239.649 37.6085 239.649C36.6742 239.649 36.0476 239.405 35.7286 238.917C35.4096 238.425 35.2501 237.757 35.2501 236.91V236.744H36.671ZM44.1807 236.886C44.0928 236.941 44.0033 236.987 43.9122 237.022C43.8243 237.055 43.7022 237.086 43.546 237.115L43.2335 237.174C42.9405 237.226 42.7305 237.289 42.6036 237.364C42.3887 237.491 42.2813 237.688 42.2813 237.955C42.2813 238.193 42.3464 238.365 42.4766 238.473C42.6101 238.577 42.7712 238.629 42.96 238.629C43.2595 238.629 43.5346 238.541 43.7852 238.365C44.0391 238.189 44.171 237.869 44.1807 237.403V236.886ZM43.336 236.236C43.5932 236.204 43.7771 236.163 43.8878 236.114C44.0863 236.03 44.1856 235.898 44.1856 235.719C44.1856 235.501 44.1091 235.351 43.9561 235.27C43.8064 235.185 43.585 235.143 43.2921 235.143C42.9633 235.143 42.7305 235.224 42.5938 235.387C42.4962 235.507 42.4311 235.67 42.3985 235.875H41.0557C41.085 235.41 41.2152 235.027 41.4464 234.728C41.8142 234.259 42.4457 234.024 43.3409 234.024C43.9236 234.024 44.4411 234.14 44.8936 234.371C45.3461 234.602 45.5723 235.038 45.5723 235.68V238.121C45.5723 238.29 45.5756 238.495 45.5821 238.736C45.5919 238.919 45.6195 239.042 45.6651 239.107C45.7107 239.173 45.779 239.226 45.8702 239.269V239.474H44.3565C44.3142 239.366 44.2849 239.265 44.2686 239.171C44.2523 239.076 44.2393 238.969 44.2296 238.849C44.0375 239.057 43.8161 239.234 43.5655 239.381C43.266 239.553 42.9275 239.64 42.5499 239.64C42.0681 239.64 41.6693 239.503 41.3536 239.229C41.0411 238.953 40.8848 238.562 40.8848 238.058C40.8848 237.403 41.1371 236.93 41.6417 236.637C41.9184 236.477 42.3253 236.363 42.8624 236.295L43.336 236.236ZM49.7618 234.024C50.3119 234.024 50.7611 234.169 51.1094 234.459C51.461 234.745 51.6368 235.222 51.6368 235.89V239.474H50.211V236.236C50.211 235.956 50.1736 235.742 50.0987 235.592C49.962 235.318 49.7016 235.182 49.3174 235.182C48.8454 235.182 48.5215 235.382 48.3458 235.782C48.2546 235.994 48.209 236.264 48.209 236.593V239.474H46.8223V234.161H48.1651V234.938C48.3441 234.664 48.5134 234.467 48.6729 234.347C48.9594 234.132 49.3223 234.024 49.7618 234.024Z" fill="#CBD5E0"/> <path d="M11.3092 210.435C11.3092 211.249 11.376 211.872 11.5094 212.305C11.6429 212.735 11.9163 212.949 12.3297 212.949C12.7432 212.949 13.0133 212.735 13.1403 212.305C13.2705 211.872 13.3356 211.249 13.3356 210.435C13.3356 209.582 13.2705 208.95 13.1403 208.54C13.0133 208.13 12.7432 207.925 12.3297 207.925C11.9163 207.925 11.6429 208.13 11.5094 208.54C11.376 208.95 11.3092 209.582 11.3092 210.435ZM12.3297 206.778C13.2314 206.778 13.8629 207.095 14.2243 207.73C14.5889 208.365 14.7711 209.266 14.7711 210.435C14.7711 211.603 14.5889 212.503 14.2243 213.135C13.8629 213.767 13.2314 214.082 12.3297 214.082C11.428 214.082 10.7949 213.767 10.4303 213.135C10.069 212.503 9.88834 211.603 9.88834 210.435C9.88834 209.266 10.069 208.365 10.4303 207.73C10.7949 207.095 11.428 206.778 12.3297 206.778Z" fill="#CBD5E0"/> <path d="M0.935883 168.441V167.494C1.37534 167.474 1.68295 167.445 1.85873 167.406C2.13868 167.344 2.36655 167.22 2.54233 167.035C2.66277 166.908 2.75392 166.738 2.81577 166.527C2.85157 166.4 2.86948 166.306 2.86948 166.244H4.0267V173.324H2.60092V168.441H0.935883ZM7.54233 169.852C7.54233 170.666 7.60906 171.289 7.74252 171.722C7.87599 172.152 8.14942 172.367 8.56284 172.367C8.97625 172.367 9.24643 172.152 9.37338 171.722C9.50359 171.289 9.5687 170.666 9.5687 169.852C9.5687 168.999 9.50359 168.368 9.37338 167.958C9.24643 167.547 8.97625 167.342 8.56284 167.342C8.14942 167.342 7.87599 167.547 7.74252 167.958C7.60906 168.368 7.54233 168.999 7.54233 169.852ZM8.56284 166.195C9.46453 166.195 10.096 166.512 10.4574 167.147C10.822 167.782 11.0042 168.683 11.0042 169.852C11.0042 171.021 10.822 171.921 10.4574 172.552C10.096 173.184 9.46453 173.5 8.56284 173.5C7.66114 173.5 7.028 173.184 6.66342 172.552C6.30209 171.921 6.12143 171.021 6.12143 169.852C6.12143 168.683 6.30209 167.782 6.66342 167.147C7.028 166.512 7.66114 166.195 8.56284 166.195ZM13.1087 169.852C13.1087 170.666 13.1755 171.289 13.3089 171.722C13.4424 172.152 13.7158 172.367 14.1292 172.367C14.5427 172.367 14.8128 172.152 14.9398 171.722C15.07 171.289 15.1351 170.666 15.1351 169.852C15.1351 168.999 15.07 168.368 14.9398 167.958C14.8128 167.547 14.5427 167.342 14.1292 167.342C13.7158 167.342 13.4424 167.547 13.3089 167.958C13.1755 168.368 13.1087 168.999 13.1087 169.852ZM14.1292 166.195C15.0309 166.195 15.6624 166.512 16.0238 167.147C16.3884 167.782 16.5706 168.683 16.5706 169.852C16.5706 171.021 16.3884 171.921 16.0238 172.552C15.6624 173.184 15.0309 173.5 14.1292 173.5C13.2275 173.5 12.5944 173.184 12.2298 172.552C11.8685 171.921 11.6878 171.021 11.6878 169.852C11.6878 168.683 11.8685 167.782 12.2298 167.147C12.5944 166.512 13.2275 166.195 14.1292 166.195Z" fill="#CBD5E0"/> <path d="M0.555023 132.741C0.568044 132.233 0.677094 131.769 0.882172 131.349C1.08074 130.877 1.54949 130.378 2.28842 129.85C2.9297 129.391 3.34474 129.063 3.53354 128.864C3.82325 128.555 3.96811 128.216 3.96811 127.848C3.96811 127.549 3.8851 127.3 3.71909 127.101C3.55307 126.903 3.31544 126.804 3.0062 126.804C2.58302 126.804 2.29493 126.961 2.14194 127.277C2.05405 127.459 2.00196 127.749 1.98569 128.146H0.633148C0.655935 127.544 0.764984 127.057 0.960297 126.686C1.33139 125.98 1.99057 125.627 2.93784 125.627C3.68653 125.627 4.28224 125.835 4.72495 126.252C5.16765 126.665 5.38901 127.214 5.38901 127.897C5.38901 128.421 5.23276 128.887 4.92026 129.294C4.71518 129.564 4.37827 129.865 3.90952 130.197L3.35287 130.593C3.00457 130.84 2.76531 131.019 2.6351 131.13C2.50815 131.24 2.40073 131.369 2.31284 131.515H5.40366V132.741H0.555023ZM7.54233 129.269C7.54233 130.083 7.60906 130.707 7.74252 131.139C7.87599 131.569 8.14942 131.784 8.56284 131.784C8.97625 131.784 9.24643 131.569 9.37338 131.139C9.50359 130.707 9.5687 130.083 9.5687 129.269C9.5687 128.416 9.50359 127.785 9.37338 127.375C9.24643 126.965 8.97625 126.76 8.56284 126.76C8.14942 126.76 7.87599 126.965 7.74252 127.375C7.60906 127.785 7.54233 128.416 7.54233 129.269ZM8.56284 125.612C9.46453 125.612 10.096 125.93 10.4574 126.564C10.822 127.199 11.0042 128.101 11.0042 129.269C11.0042 130.438 10.822 131.338 10.4574 131.97C10.096 132.601 9.46453 132.917 8.56284 132.917C7.66114 132.917 7.028 132.601 6.66342 131.97C6.30209 131.338 6.12143 130.438 6.12143 129.269C6.12143 128.101 6.30209 127.199 6.66342 126.564C7.028 125.93 7.66114 125.612 8.56284 125.612ZM13.1087 129.269C13.1087 130.083 13.1755 130.707 13.3089 131.139C13.4424 131.569 13.7158 131.784 14.1292 131.784C14.5427 131.784 14.8128 131.569 14.9398 131.139C15.07 130.707 15.1351 130.083 15.1351 129.269C15.1351 128.416 15.07 127.785 14.9398 127.375C14.8128 126.965 14.5427 126.76 14.1292 126.76C13.7158 126.76 13.4424 126.965 13.3089 127.375C13.1755 127.785 13.1087 128.416 13.1087 129.269ZM14.1292 125.612C15.0309 125.612 15.6624 125.93 16.0238 126.564C16.3884 127.199 16.5706 128.101 16.5706 129.269C16.5706 130.438 16.3884 131.338 16.0238 131.97C15.6624 132.601 15.0309 132.917 14.1292 132.917C13.2275 132.917 12.5944 132.601 12.2298 131.97C11.8685 131.338 11.6878 130.438 11.6878 129.269C11.6878 128.101 11.8685 127.199 12.2298 126.564C12.5944 125.93 13.2275 125.612 14.1292 125.612Z" fill="#CBD5E0"/> <path d="M1.87338 89.9854C1.87338 90.2686 1.91896 90.503 2.0101 90.6885C2.17937 91.0303 2.48699 91.2012 2.93295 91.2012C3.20639 91.2012 3.44402 91.1085 3.64584 90.9229C3.85092 90.7341 3.95346 90.4639 3.95346 90.1124C3.95346 89.6469 3.76466 89.336 3.38705 89.1797C3.17221 89.0919 2.83367 89.0479 2.37143 89.0479V88.0518C2.8239 88.0453 3.13966 88.0014 3.3187 87.92C3.62794 87.7833 3.78256 87.5066 3.78256 87.0899C3.78256 86.8197 3.70281 86.6 3.5433 86.4307C3.38705 86.2615 3.1657 86.1768 2.87924 86.1768C2.55047 86.1768 2.30795 86.281 2.1517 86.4893C1.99871 86.6977 1.92547 86.976 1.93198 87.3243H0.633148C0.646169 86.9727 0.70639 86.6391 0.813812 86.3233C0.927745 86.0466 1.10678 85.7911 1.35092 85.5567C1.53321 85.3907 1.74968 85.2637 2.00034 85.1758C2.25099 85.088 2.5586 85.044 2.92319 85.044C3.60027 85.044 4.14552 85.2198 4.55893 85.5714C4.9756 85.9197 5.18393 86.3884 5.18393 86.9776C5.18393 87.3943 5.06023 87.7458 4.81284 88.0323C4.65659 88.2113 4.49383 88.3334 4.32455 88.3985C4.45151 88.3985 4.6338 88.5075 4.87143 88.7256C5.22625 89.0544 5.40366 89.5036 5.40366 90.0733C5.40366 90.6723 5.19532 91.1996 4.77866 91.6553C4.36524 92.1078 3.75164 92.334 2.93784 92.334C1.93523 92.334 1.23862 92.0069 0.847992 91.3526C0.642914 91.0043 0.528982 90.5486 0.506195 89.9854H1.87338ZM7.54233 88.6866C7.54233 89.5004 7.60906 90.1238 7.74252 90.5567C7.87599 90.9864 8.14942 91.2012 8.56284 91.2012C8.97625 91.2012 9.24643 90.9864 9.37338 90.5567C9.50359 90.1238 9.5687 89.5004 9.5687 88.6866C9.5687 87.8337 9.50359 87.2022 9.37338 86.7921C9.24643 86.3819 8.97625 86.1768 8.56284 86.1768C8.14942 86.1768 7.87599 86.3819 7.74252 86.7921C7.60906 87.2022 7.54233 87.8337 7.54233 88.6866ZM8.56284 85.0294C9.46453 85.0294 10.096 85.3467 10.4574 85.9815C10.822 86.6163 11.0042 87.518 11.0042 88.6866C11.0042 89.8552 10.822 90.7553 10.4574 91.3868C10.096 92.0183 9.46453 92.334 8.56284 92.334C7.66114 92.334 7.028 92.0183 6.66342 91.3868C6.30209 90.7553 6.12143 89.8552 6.12143 88.6866C6.12143 87.518 6.30209 86.6163 6.66342 85.9815C7.028 85.3467 7.66114 85.0294 8.56284 85.0294ZM13.1087 88.6866C13.1087 89.5004 13.1755 90.1238 13.3089 90.5567C13.4424 90.9864 13.7158 91.2012 14.1292 91.2012C14.5427 91.2012 14.8128 90.9864 14.9398 90.5567C15.07 90.1238 15.1351 89.5004 15.1351 88.6866C15.1351 87.8337 15.07 87.2022 14.9398 86.7921C14.8128 86.3819 14.5427 86.1768 14.1292 86.1768C13.7158 86.1768 13.4424 86.3819 13.3089 86.7921C13.1755 87.2022 13.1087 87.8337 13.1087 88.6866ZM14.1292 85.0294C15.0309 85.0294 15.6624 85.3467 16.0238 85.9815C16.3884 86.6163 16.5706 87.518 16.5706 88.6866C16.5706 89.8552 16.3884 90.7553 16.0238 91.3868C15.6624 92.0183 15.0309 92.334 14.1292 92.334C13.2275 92.334 12.5944 92.0183 12.2298 91.3868C11.8685 90.7553 11.6878 89.8552 11.6878 88.6866C11.6878 87.518 11.8685 86.6163 12.2298 85.9815C12.5944 85.3467 13.2275 85.0294 14.1292 85.0294Z" fill="#CBD5E0"/> 
          <path d="M5.47202 50.0521H4.67123V51.5756H3.30893V50.0521H0.506195V48.8363L3.10873 44.5394H4.67123V48.9633H5.47202V50.0521ZM3.30893 48.9633V45.9066L1.53647 48.9633H3.30893ZM7.54233 48.1039C7.54233 48.9177 7.60906 49.5411 7.74252 49.974C7.87599 50.4037 8.14942 50.6185 8.56284 50.6185C8.97625 50.6185 9.24643 50.4037 9.37338 49.974C9.50359 49.5411 9.5687 48.9177 9.5687 48.1039C9.5687 47.251 9.50359 46.6195 9.37338 46.2094C9.24643 45.7992 8.97625 45.5941 8.56284 45.5941C8.14942 45.5941 7.87599 45.7992 7.74252 46.2094C7.60906 46.6195 7.54233 47.251 7.54233 48.1039ZM8.56284 44.4467C9.46453 44.4467 10.096 44.764 10.4574 45.3988C10.822 46.0336 11.0042 46.9353 11.0042 48.1039C11.0042 49.2725 10.822 50.1726 10.4574 50.8041C10.096 51.4356 9.46453 51.7513 8.56284 51.7513C7.66114 51.7513 7.028 51.4356 6.66342 50.8041C6.30209 50.1726 6.12143 49.2725 6.12143 48.1039C6.12143 46.9353 6.30209 46.0336 6.66342 45.3988C7.028 44.764 7.66114 44.4467 8.56284 44.4467ZM13.1087 48.1039C13.1087 48.9177 13.1755 49.5411 13.3089 49.974C13.4424 50.4037 13.7158 50.6185 14.1292 50.6185C14.5427 50.6185 14.8128 50.4037 14.9398 49.974C15.07 49.5411 15.1351 48.9177 15.1351 48.1039C15.1351 47.251 15.07 46.6195 14.9398 46.2094C14.8128 45.7992 14.5427 45.5941 14.1292 45.5941C13.7158 45.5941 13.4424 45.7992 13.3089 46.2094C13.1755 46.6195 13.1087 47.251 13.1087 48.1039ZM14.1292 44.4467C15.0309 44.4467 15.6624 44.764 16.0238 45.3988C16.3884 46.0336 16.5706 46.9353 16.5706 48.1039C16.5706 49.2725 16.3884 50.1726 16.0238 50.8041C15.6624 51.4356 15.0309 51.7513 14.1292 51.7513C13.2275 51.7513 12.5944 51.4356 12.2298 50.8041C11.8685 50.1726 11.6878 49.2725 11.6878 48.1039C11.6878 46.9353 11.8685 46.0336 12.2298 45.3988C12.5944 44.764 13.2275 44.4467 14.1292 44.4467Z" fill="#CBD5E0"/> <path d="M1.89285 9.09827C1.94819 9.401 2.05399 9.63538 2.21024 9.80139C2.36649 9.96415 2.59435 10.0455 2.89383 10.0455C3.23888 10.0455 3.50093 9.92509 3.67996 9.6842C3.86225 9.44006 3.9534 9.13407 3.9534 8.76624C3.9534 8.40491 3.86876 8.10055 3.69949 7.85315C3.53022 7.6025 3.26655 7.47717 2.90848 7.47717C2.73921 7.47717 2.59272 7.49833 2.46902 7.54065C2.25093 7.61877 2.08654 7.76363 1.97586 7.97522L0.725861 7.91663L1.22391 4.00549H5.12527V5.18713H2.22977L1.97586 6.73499C2.1907 6.59501 2.35835 6.50224 2.47879 6.45667C2.68061 6.3818 2.92638 6.34436 3.21609 6.34436C3.80203 6.34436 4.3131 6.5413 4.7493 6.93518C5.1855 7.32906 5.40359 7.90198 5.40359 8.65393C5.40359 9.30823 5.19363 9.89254 4.77371 10.4069C4.35379 10.9212 3.72554 11.1783 2.88895 11.1783C2.21512 11.1783 1.66173 10.9977 1.22879 10.6364C0.795848 10.275 0.554962 9.76233 0.506134 9.09827H1.89285ZM7.54227 7.52112C7.54227 8.33492 7.609 8.95829 7.74246 9.39124C7.87593 9.82092 8.14936 10.0358 8.56277 10.0358C8.97619 10.0358 9.24637 9.82092 9.37332 9.39124C9.50353 8.95829 9.56863 8.33492 9.56863 7.52112C9.56863 6.66825 9.50353 6.03674 9.37332 5.62659C9.24637 5.21643 8.97619 5.01135 8.56277 5.01135C8.14936 5.01135 7.87593 5.21643 7.74246 5.62659C7.609 6.03674 7.54227 6.66825 7.54227 7.52112ZM8.56277 3.86389C9.46447 3.86389 10.096 4.18127 10.4573 4.81604C10.8219 5.45081 11.0042 6.3525 11.0042 7.52112C11.0042 8.68974 10.8219 9.5898 10.4573 10.2213C10.096 10.8528 9.46447 11.1686 8.56277 11.1686C7.66108 11.1686 7.02794 10.8528 6.66336 10.2213C6.30203 9.5898 6.12137 8.68974 6.12137 7.52112C6.12137 6.3525 6.30203 5.45081 6.66336 4.81604C7.02794 4.18127 7.66108 3.86389 8.56277 3.86389ZM13.1087 7.52112C13.1087 8.33492 13.1754 8.95829 13.3089 9.39124C13.4423 9.82092 13.7158 10.0358 14.1292 10.0358C14.5426 10.0358 14.8128 9.82092 14.9397 9.39124C15.0699 8.95829 15.135 8.33492 15.135 7.52112C15.135 6.66825 15.0699 6.03674 14.9397 5.62659C14.8128 5.21643 14.5426 5.01135 14.1292 5.01135C13.7158 5.01135 13.4423 5.21643 13.3089 5.62659C13.1754 6.03674 13.1087 6.66825 13.1087 7.52112ZM14.1292 3.86389C15.0309 3.86389 15.6624 4.18127 16.0237 4.81604C16.3883 5.45081 16.5706 6.3525 16.5706 7.52112C16.5706 8.68974 16.3883 9.5898 16.0237 10.2213C15.6624 10.8528 15.0309 11.1686 14.1292 11.1686C13.2275 11.1686 12.5944 10.8528 12.2298 10.2213C11.8684 9.5898 11.6878 8.68974 11.6878 7.52112C11.6878 6.3525 11.8684 5.45081 12.2298 4.81604C12.5944 4.18127 13.2275 3.86389 14.1292 3.86389Z" fill="#CBD5E0"/> <line x1="35.5303" y1="208.494" x2="747.258" y2="208.494" stroke="#E2E8F0" stroke-linecap="round" stroke-linejoin="round" stroke-dasharray="3.5 3.5"/> <line x1="35.5303" y1="167.911" x2="747.258" y2="167.911" stroke="#E2E8F0" stroke-linecap="round" stroke-linejoin="round" stroke-dasharray="3.5 3.5"/> <line x1="35.5303" y1="127.328" x2="747.258" y2="127.328" stroke="#E2E8F0" stroke-linecap="round" stroke-linejoin="round" stroke-dasharray="3.5 3.5"/> <line x1="35.5303" y1="86.7457" x2="747.258" y2="86.7457" stroke="#E2E8F0" stroke-linecap="round" stroke-linejoin="round" stroke-dasharray="3.5 3.5"/> <line x1="35.5303" y1="46.163" x2="747.258" y2="46.163" stroke="#E2E8F0" stroke-linecap="round" stroke-linejoin="round" stroke-dasharray="3.5 3.5"/> <line x1="35.5303" y1="5.5802" x2="747.258" y2="5.58026" stroke="#E2E8F0" stroke-linecap="round" stroke-linejoin="round" stroke-dasharray="3.5 3.5"/> <path d="M650.354 143.692C687.355 133.062 730.707 148.122 747.758 156.981V208.791H35.0303V6.0802C70.8372 12.1613 93.8558 62.1612 99.6105 93.9179C104.304 119.819 104.513 138.287 129.45 143.692C154.52 149.127 184.244 131.834 209.394 108.411C229.514 89.6725 258.996 57.1922 271.5 65C293.666 78.5885 327.172 89.3738 356.5 75.5C393.159 58.1577 415.249 18.6126 461.5 31C507.751 43.3874 504.422 51.6307 543 71C581.578 90.3693 604.104 156.981 650.354 143.692Z" fill="url(#paint0_linear_59_817)"/> <path d="M747.758 156.981C730.707 148.122 687.355 133.062 650.354 143.692C604.104 156.981 581.938 88.5088 543.36 69.1395C504.782 49.7702 509.471 41.8874 463.221 29.5C416.97 17.1126 396.722 55.1577 360.063 72.5C330.735 86.3739 294.222 77.1585 272.056 63.5699C259.552 55.7622 229.514 89.6725 209.394 108.411C184.244 131.834 154.52 149.127 129.45 143.692C104.513 138.287 104.304 119.819 99.6105 93.9179C93.8559 62.1612 70.8371 12.1613 35.0303 6.0802" stroke="#2D3748" stroke-width="3"/> <defs> <linearGradient id="paint0_linear_59_817" x1="391.394" y1="6.0802" x2="391.394" y2="208.791" gradientUnits="userSpaceOnUse"> <stop stop-color="#2D3748" stop-opacity="0.36"/> <stop offset="1" stop-color="#2D3748" stop-opacity="0"/> </linearGradient> </defs> </svg> 